<?xml version="1.0" encoding="UTF-8" standalone="no"?>
<!-- Created with Inkscape (http://www.inkscape.org/) -->

<svg
   xmlns:dc="http://purl.org/dc/elements/1.1/"
   xmlns:cc="http://creativecommons.org/ns#"
   xmlns:rdf="http://www.w3.org/1999/02/22-rdf-syntax-ns#"
   xmlns:svg="http://www.w3.org/2000/svg"
   xmlns="http://www.w3.org/2000/svg"
   xmlns:sodipodi="http://sodipodi.sourceforge.net/DTD/sodipodi-0.dtd"
   xmlns:inkscape="http://www.inkscape.org/namespaces/inkscape"
   id="svg5142"
   version="1.1"
   inkscape:version="0.91 r13725"
   width="860"
   height="450"
   viewBox="0 0 860 450"
   sodipodi:docname="diagram_2.svg">
  <metadata
     id="metadata5148">
    <rdf:RDF>
      <cc:Work
         rdf:about="">
        <dc:format>image/svg+xml</dc:format>
        <dc:type
           rdf:resource="http://purl.org/dc/dcmitype/StillImage" />
        <dc:title></dc:title>
      </cc:Work>
    </rdf:RDF>
  </metadata>
  <defs
     id="defs5146">
    <marker
       inkscape:stockid="Arrow1Mend"
       orient="auto"
       refY="0.0"
       refX="0.0"
       id="marker6800"
       style="overflow:visible;"
       inkscape:isstock="true">
      <path
         id="path6802"
         d="M 0.0,0.0 L 5.0,-5.0 L -12.5,0.0 L 5.0,5.0 L 0.0,0.0 z "
         style="fill-rule:evenodd;stroke:#dc0000;stroke-width:1pt;stroke-opacity:1;fill:#dc0000;fill-opacity:1"
         transform="scale(0.4) rotate(180) translate(10,0)" />
    </marker>
    <marker
       inkscape:stockid="Arrow1Mend"
       orient="auto"
       refY="0.0"
       refX="0.0"
       id="marker6728"
       style="overflow:visible;"
       inkscape:isstock="true">
      <path
         id="path6730"
         d="M 0.0,0.0 L 5.0,-5.0 L -12.5,0.0 L 5.0,5.0 L 0.0,0.0 z "
         style="fill-rule:evenodd;stroke:#aa0000;stroke-width:1pt;stroke-opacity:1;fill:#aa0000;fill-opacity:1"
         transform="scale(0.4) rotate(180) translate(10,0)" />
    </marker>
    <marker
       inkscape:stockid="Arrow1Mend"
       orient="auto"
       refY="0.0"
       refX="0.0"
       id="marker6518"
       style="overflow:visible;"
       inkscape:isstock="true">
      <path
         id="path6520"
         d="M 0.0,0.0 L 5.0,-5.0 L -12.5,0.0 L 5.0,5.0 L 0.0,0.0 z "
         style="fill-rule:evenodd;stroke:#c80000;stroke-width:1pt;stroke-opacity:1;fill:#c80000;fill-opacity:1"
         transform="scale(0.4) rotate(180) translate(10,0)" />
    </marker>
    <marker
       inkscape:stockid="Arrow1Lend"
       orient="auto"
       refY="0.0"
       refX="0.0"
       id="marker6460"
       style="overflow:visible;"
       inkscape:isstock="true">
      <path
         id="path6462"
         d="M 0.0,0.0 L 5.0,-5.0 L -12.5,0.0 L 5.0,5.0 L 0.0,0.0 z "
         style="fill-rule:evenodd;stroke:#000000;stroke-width:1pt;stroke-opacity:1;fill:#000000;fill-opacity:1"
         transform="scale(0.8) rotate(180) translate(12.5,0)" />
    </marker>
    <marker
       inkscape:stockid="Arrow1Mend"
       orient="auto"
       refY="0.0"
       refX="0.0"
       id="marker6376"
       style="overflow:visible;"
       inkscape:isstock="true">
      <path
         id="path6378"
         d="M 0.0,0.0 L 5.0,-5.0 L -12.5,0.0 L 5.0,5.0 L 0.0,0.0 z "
         style="fill-rule:evenodd;stroke:#649600;stroke-width:1pt;stroke-opacity:1;fill:#649600;fill-opacity:1"
         transform="scale(0.4) rotate(180) translate(10,0)" />
    </marker>
    <marker
       inkscape:stockid="Arrow1Mend"
       orient="auto"
       refY="0.0"
       refX="0.0"
       id="Arrow1Mend"
       style="overflow:visible;"
       inkscape:isstock="true">
      <path
         id="path5759"
         d="M 0.0,0.0 L 5.0,-5.0 L -12.5,0.0 L 5.0,5.0 L 0.0,0.0 z "
         style="fill-rule:evenodd;stroke:#649600;stroke-width:1pt;stroke-opacity:1;fill:#649600;fill-opacity:1"
         transform="scale(0.4) rotate(180) translate(10,0)" />
    </marker>
    <marker
       inkscape:stockid="Arrow2Mend"
       orient="auto"
       refY="0.0"
       refX="0.0"
       id="marker6084"
       style="overflow:visible;"
       inkscape:isstock="true">
      <path
         id="path6086"
         style="fill-rule:evenodd;stroke-width:0.625;stroke-linejoin:round;stroke:#649600;stroke-opacity:1;fill:#649600;fill-opacity:1"
         d="M 8.7185878,4.0337352 L -2.2072895,0.016013256 L 8.7185884,-4.0017078 C 6.9730900,-1.6296469 6.9831476,1.6157441 8.7185878,4.0337352 z "
         transform="scale(0.6) rotate(180) translate(0,0)" />
    </marker>
    <marker
       inkscape:stockid="Arrow2Lend"
       orient="auto"
       refY="0.0"
       refX="0.0"
       id="Arrow2Lend"
       style="overflow:visible;"
       inkscape:isstock="true">
      <path
         id="path5771"
         style="fill-rule:evenodd;stroke-width:0.625;stroke-linejoin:round;stroke:#000000;stroke-opacity:1;fill:#000000;fill-opacity:1"
         d="M 8.7185878,4.0337352 L -2.2072895,0.016013256 L 8.7185884,-4.0017078 C 6.9730900,-1.6296469 6.9831476,1.6157441 8.7185878,4.0337352 z "
         transform="scale(1.1) rotate(180) translate(1,0)" />
    </marker>
    <marker
       inkscape:stockid="Arrow1Lend"
       orient="auto"
       refY="0.0"
       refX="0.0"
       id="Arrow1Lend"
       style="overflow:visible;"
       inkscape:isstock="true">
      <path
         id="path5753"
         d="M 0.0,0.0 L 5.0,-5.0 L -12.5,0.0 L 5.0,5.0 L 0.0,0.0 z "
         style="fill-rule:evenodd;stroke:#000000;stroke-width:1pt;stroke-opacity:1;fill:#000000;fill-opacity:1"
         transform="scale(0.8) rotate(180) translate(12.5,0)" />
    </marker>
    <marker
       inkscape:stockid="Arrow2Mend"
       orient="auto"
       refY="0.0"
       refX="0.0"
       id="Arrow2Mend"
       style="overflow:visible;"
       inkscape:isstock="true">
      <path
         id="path5777"
         style="fill-rule:evenodd;stroke-width:0.625;stroke-linejoin:round;stroke:#aa0000;stroke-opacity:1;fill:#aa0000;fill-opacity:1"
         d="M 8.7185878,4.0337352 L -2.2072895,0.016013256 L 8.7185884,-4.0017078 C 6.9730900,-1.6296469 6.9831476,1.6157441 8.7185878,4.0337352 z "
         transform="scale(0.6) rotate(180) translate(0,0)" />
    </marker>
  </defs>
  <sodipodi:namedview
     pagecolor="#ffffff"
     bordercolor="#666666"
     borderopacity="1"
     objecttolerance="10"
     gridtolerance="10"
     guidetolerance="10"
     inkscape:pageopacity="0"
     inkscape:pageshadow="2"
     inkscape:window-width="1920"
     inkscape:window-height="1058"
     id="namedview5144"
     showgrid="false"
     inkscape:zoom="1.3288932"
     inkscape:cx="413.31233"
     inkscape:cy="328.54661"
     inkscape:window-x="-8"
     inkscape:window-y="-8"
     inkscape:window-maximized="1"
     inkscape:current-layer="svg5142" />
  <path
     style="fill:#000000"
     d="m 388.43548,342.45266 c -0.25208,-0.65689 -0.33508,-2.27057 -0.18445,-3.58593 0.19829,-1.73168 0.73629,-2.39159 1.9498,-2.39159 0.92177,0 1.7177,0.56953 1.76875,1.26562 0.0533,0.72765 -0.0577,0.81732 -0.26125,0.21094 -0.19474,-0.58008 -0.89575,-1.05469 -1.55781,-1.05469 -0.82062,0 -1.20376,0.97126 -1.20376,3.05153 0,2.63683 0.22949,2.99153 1.68866,2.60994 0.92877,-0.24287 1.47589,-0.0973 1.21583,0.32347 -0.72871,1.17906 -2.90348,0.90575 -3.41577,-0.42929 z m 10.42534,0.32431 c 2.37808,-0.95588 2.43826,-2.16698 0.13756,-2.76862 -2.2644,-0.59216 -1.84252,-3.53321 0.50681,-3.53321 1.21005,0 1.75152,0.65921 1.94785,2.37134 0.30911,2.69586 -1.08976,4.82602 -3.1174,4.74705 -0.92931,-0.0362 -0.75953,-0.30017 0.52518,-0.81656 z m 1.89844,-4.61433 c 0,-0.6961 -0.56953,-1.26563 -1.26563,-1.26563 -0.69609,0 -1.26562,0.56953 -1.26562,1.26563 0,0.69609 0.56953,1.26562 1.26562,1.26562 0.6961,0 1.26563,-0.56953 1.26563,-1.26562 z m 18.7895,3.21216 c 0.82093,-0.21392 1.96,-0.19985 2.53125,0.0313 0.57123,0.23113 -0.10044,0.40616 -1.49263,0.38896 -1.39219,-0.0172 -1.85957,-0.2063 -1.03862,-0.42022 z m -6.96409,-1.65661 c -0.01,-1.41112 0.36875,-1.71964 1.68774,-1.37472 0.93535,0.24461 1.9043,0.77424 2.15319,1.17697 0.24891,0.40273 -0.17502,0.49142 -0.94205,0.19708 -0.79011,-0.30319 -1.71781,-0.0247 -2.14028,0.64248 -0.56609,0.89401 -0.74878,0.73944 -0.7586,-0.64181 z m 13.32889,-0.0225 c 0.60907,-0.24373 1.33681,-0.21376 1.61719,0.0666 0.28037,0.28037 -0.21798,0.47979 -1.10743,0.44315 -0.98292,-0.0405 -1.18285,-0.24042 -0.50976,-0.50976 z m -0.97706,-3.00959 c 0.21511,-0.34804 0.91582,-0.63281 1.55713,-0.63281 0.64132,0 1.34203,0.28477 1.55714,0.63281 0.2151,0.34805 -0.48561,0.63281 -1.55714,0.63281 -1.07153,0 -1.77223,-0.28476 -1.55713,-0.63281 z m -9.99169,-0.36544 c 0.60907,-0.24373 1.33681,-0.21376 1.61719,0.0666 0.28037,0.28037 -0.21798,0.47979 -1.10743,0.44316 -0.98292,-0.0405 -1.18285,-0.24042 -0.50976,-0.50976 z m 21.09375,0 c 0.60907,-0.24373 1.33681,-0.21376 1.61719,0.0666 0.28037,0.28037 -0.21798,0.47979 -1.10743,0.44316 -0.98292,-0.0405 -1.18285,-0.24042 -0.50976,-0.50976 z m -53.89893,-11.34284 c -1.15738,-2.1626 0.17128,-5.79953 2.11873,-5.79953 2.02208,0 3.33308,3.24042 2.26204,5.5911 -1.13259,2.48578 -3.11157,2.57994 -4.38077,0.20843 z m 3.43213,-2.07296 c 0,-3.81233 -1.99177,-3.52182 -2.37377,0.34622 -0.19536,1.97822 0.08,2.67721 1.05468,2.67721 0.95087,0 1.31909,-0.84398 1.31909,-3.02343 z m 2.53125,3.02343 c 0,-0.46407 0.37968,-0.84375 0.84375,-0.84375 0.46406,0 0.84375,0.37968 0.84375,0.84375 0,0.46406 -0.37969,0.84375 -0.84375,0.84375 -0.46407,0 -0.84375,-0.37969 -0.84375,-0.84375 z m 5.47305,-2.21242 c 1.58717,-3.79863 1.63301,-3.50788 -0.62149,-3.94212 -1.37286,-0.26442 -1.13928,-0.39747 0.84375,-0.48056 1.50821,-0.0632 2.74219,0.0901 2.74219,0.34059 0,0.80463 -3.39415,7.13826 -3.82534,7.13826 -0.22884,0 0.15857,-1.37528 0.86089,-3.05617 z m 3.50789,2.40912 c -0.25274,-0.40896 0.33745,-0.71543 1.31155,-0.68106 2.38673,0.0842 3.00554,-2.03704 0.76516,-2.62292 -1.0128,-0.26485 -1.7764,-1.14762 -1.7764,-2.05363 0,-1.1989 0.56972,-1.56088 2.32031,-1.47419 1.98943,0.0985 2.04959,0.16704 0.42187,0.48056 -2.37999,0.45841 -2.45446,1.59357 -0.14418,2.19773 2.40616,0.62922 1.91868,4.27611 -0.61995,4.63788 -1.00035,0.14255 -2.02562,-0.0754 -2.27836,-0.48437 z m 15.84421,-0.48494 c -0.26523,-0.69119 -0.35901,-2.33293 -0.20838,-3.6483 0.21146,-1.84673 0.75441,-2.43773 2.38323,-2.59412 l 2.10937,-0.20253 -2.10937,0.98169 -2.10938,0.98167 1.9482,0.34074 c 1.54882,0.27089 1.89474,0.80155 1.6875,2.58864 -0.28908,2.49264 -2.91732,3.59488 -3.70117,1.55221 z m 3.0186,-1.39926 c 0,-0.9375 -0.5625,-1.6875 -1.26563,-1.6875 -0.70312,0 -1.26562,0.75 -1.26562,1.6875 0,0.9375 0.5625,1.6875 1.26562,1.6875 0.70313,0 1.26563,-0.75 1.26563,-1.6875 z m 2.74878,-0.99687 c 0.16898,-3.01313 0.49639,-3.64376 1.89184,-3.64376 1.40625,0 1.6875,0.5625 1.6875,3.375 0,2.8541 -0.29198,3.41649 -1.89184,3.64376 -1.73467,0.24643 -1.87486,-0.034 -1.6875,-3.375 z m 3.15747,1.41874 c 0,-0.69609 -0.56953,-1.26562 -1.26563,-1.26562 -0.69609,0 -1.26562,0.56953 -1.26562,1.26562 0,0.6961 0.56953,1.26563 1.26562,1.26563 0.6961,0 1.26563,-0.56953 1.26563,-1.26563 z m 0,-3.84667 c 0,-0.43668 -0.56953,-0.79395 -1.26563,-0.79395 -1.30478,0 -1.67627,0.99559 -0.72606,1.94582 0.6741,0.67409 1.99169,-0.0879 1.99169,-1.15187 z m 3.16406,5.39725 c 1.34779,-0.54384 1.38283,-5.09745 0.0427,-5.54417 -0.63301,-0.211 -0.47501,-0.54341 0.42187,-0.88757 1.19775,-0.45963 1.43391,-0.0103 1.43391,2.72796 0,1.83308 0.46493,3.46581 1.05468,3.70378 0.58008,0.23406 -0.0843,0.42558 -1.47656,0.42558 -1.39219,0 -2.05664,-0.19152 -1.47656,-0.42558 z m 5.27344,-0.28498 c 0,-0.46406 0.37968,-0.84375 0.84375,-0.84375 0.46406,0 0.84375,0.37969 0.84375,0.84375 0,0.46406 -0.37969,0.84375 -0.84375,0.84375 -0.46407,0 -0.84375,-0.37969 -0.84375,-0.84375 z m 3.7314,-0.28824 c -0.26523,-0.69119 -0.35901,-2.33293 -0.20838,-3.64829 0.19899,-1.73781 0.73517,-2.39159 1.96135,-2.39159 1.40528,0 1.6875,0.5625 1.6875,3.36344 0,2.53466 -0.36446,3.43364 -1.47911,3.6483 -0.81352,0.15667 -1.69613,-0.28067 -1.96136,-0.97186 z m 3.0186,-2.66488 c 0,-2.0625 -0.3817,-2.95313 -1.26563,-2.95313 -0.88392,0 -1.26562,0.89063 -1.26562,2.95313 0,2.06249 0.3817,2.95312 1.26562,2.95312 0.88393,0 1.26563,-0.89063 1.26563,-2.95312 z m 5.0625,2.9864 c 0,-0.48237 -0.79102,-0.87703 -1.75781,-0.87703 -0.96681,0 -1.61907,-0.28477 -1.4495,-0.63281 2.96962,-6.09491 4.05106,-6.84572 4.05106,-2.8125 0,1.35351 0.34229,2.5875 0.76062,2.74219 0.41834,0.15468 0.2285,0.77082 -0.42187,1.3692 -0.68295,0.62835 -1.1825,0.71746 -1.1825,0.21095 z m 0,-3.5489 c 0,-1.00546 -0.10744,-1.66993 -0.23875,-1.47657 -0.13132,0.19337 -0.74735,1.01602 -1.36894,1.82813 -0.96743,1.26392 -0.93305,1.47656 0.23875,1.47656 0.84154,0 1.36894,-0.7043 1.36894,-1.82812 z m 3.375,3.64639 c 0,-0.39214 0.75937,-1.4002 1.6875,-2.24014 2.23499,-2.02264 2.23429,-4.13668 -8.5e-4,-3.5521 -0.92876,0.24288 -1.47588,0.0973 -1.21583,-0.32346 0.74735,-1.20924 2.9091,-0.89109 3.44563,0.50707 0.26848,0.69968 -0.11524,2.19305 -0.85274,3.31861 -1.27478,1.94557 -1.24817,2.06439 0.54004,2.40983 1.33909,0.2587 1.09099,0.39647 -0.86125,0.47827 -1.5082,0.0632 -2.74218,-0.20594 -2.74218,-0.59808 z m 7.38281,0.15969 c 2.19964,-0.47253 2.59222,-2.82171 0.47155,-2.82171 -1.27678,0 -1.26333,-0.1196 0.12782,-1.13683 1.72054,-1.25809 0.43923,-2.80503 -1.44312,-1.7423 -0.81684,0.46117 -0.82962,0.35199 -0.0567,-0.48412 1.77272,-1.91765 3.40943,-0.39557 3.31175,3.0798 -0.0794,2.82599 -0.35857,3.25411 -2.20034,3.37478 -1.85882,0.1218 -1.88388,0.0897 -0.21095,-0.26962 z m 14.06734,-0.5787 c -0.26523,-0.69119 -0.35901,-2.33293 -0.20838,-3.64829 0.19899,-1.73781 0.73517,-2.39159 1.96135,-2.39159 1.40528,0 1.6875,0.5625 1.6875,3.36344 0,2.53466 -0.36446,3.43364 -1.47911,3.6483 -0.81352,0.15667 -1.69613,-0.28067 -1.96136,-0.97186 z m 3.0186,-2.66488 c 0,-2.0625 -0.3817,-2.95313 -1.26563,-2.95313 -0.88392,0 -1.26562,0.89063 -1.26562,2.95313 0,2.06249 0.3817,2.95312 1.26562,2.95312 0.88393,0 1.26563,-0.89063 1.26563,-2.95312 z m 5.90625,3.375 c 0,-0.23203 0.75937,-1.18125 1.6875,-2.10938 2.2493,-2.2493 2.24862,-4.5623 -8.5e-4,-3.97397 -0.92876,0.24288 -1.47588,0.0973 -1.21583,-0.32346 0.74735,-1.20924 2.9091,-0.89109 3.44563,0.50707 0.26848,0.69968 -0.11469,2.19221 -0.85151,3.31674 -1.23714,1.88812 -1.22811,2.07385 0.11816,2.42687 0.87451,0.2293 0.5294,0.42141 -0.86247,0.48013 -1.27617,0.0538 -2.32031,-0.092 -2.32031,-0.324 z m 7.66149,-1.26563 c 1.23003,-2.58275 1.61976,-3.06141 1.61976,-1.98939 0,0.45271 -0.59047,1.56014 -1.31218,2.46094 -1.23724,1.54433 -1.25481,1.5174 -0.30758,-0.47155 z m 4.99476,1.36403 c 0,-0.1779 0.75989,-0.52218 1.68866,-0.76506 0.92877,-0.24287 1.47589,-0.0973 1.21583,0.32347 -0.45415,0.73483 -2.90449,1.10737 -2.90449,0.44159 z m 5.61474,-0.30934 c -0.2151,-0.34804 0.4856,-0.63281 1.55713,-0.63281 1.07153,0 1.77224,0.28477 1.55714,0.63281 -0.21511,0.34804 -0.91582,0.63281 -1.55714,0.63281 -0.64132,0 -1.34202,-0.28477 -1.55713,-0.63281 z m 6.03956,0.0564 c 0.60907,-0.24373 1.33681,-0.21376 1.61719,0.0666 0.28037,0.28036 -0.21798,0.47979 -1.10743,0.44316 -0.98292,-0.0405 -1.18285,-0.24043 -0.50976,-0.50976 z m 6.29145,-0.008 c 0.82094,-0.21393 1.96,-0.19987 2.53125,0.0313 0.57123,0.23112 -0.10044,0.40615 -1.49263,0.38896 -1.39219,-0.0172 -1.85957,-0.2063 -1.03862,-0.42022 z m -18.69163,-2.83246 c -0.11036,-2.42581 1.28392,-4.20286 3.23494,-4.12308 0.73036,0.0299 0.37645,0.43887 -0.80156,0.92631 l -2.10938,0.87283 1.89844,0.734 c 2.31311,0.89433 2.51577,1.63557 0.28788,1.05298 -1.08145,-0.28281 -1.74228,0.0896 -2.0115,1.13367 -0.29112,1.12899 -0.42774,0.96555 -0.49882,-0.59671 z m 15.21605,1.19529 c -0.0696,-0.52596 -0.8858,-1.15487 -1.81392,-1.39758 -2.00374,-0.524 -2.24567,-2.96929 -0.36516,-3.69092 1.92129,-0.73727 3.08197,0.83894 2.66692,3.62168 -0.19879,1.3327 -0.41831,1.99277 -0.48784,1.46682 z m -0.12642,-3.26248 c 0,-0.69609 -0.56953,-1.26562 -1.26563,-1.26562 -0.69609,0 -1.26562,0.56953 -1.26562,1.26562 0,0.6961 0.56953,1.26563 1.26562,1.26563 0.6961,0 1.26563,-0.56953 1.26563,-1.26563 z m -8.37169,0.92306 c -1.18957,-1.43335 -0.55687,-3.03243 1.19981,-3.03243 1.82691,0 2.43359,1.72488 1.08205,3.07644 -1.07351,1.0735 -1.35897,1.06799 -2.28186,-0.044 z m 2.46544,-1.39473 c 0,-0.43668 -0.56953,-0.79395 -1.26563,-0.79395 -1.30478,0 -1.67627,0.99559 -0.72606,1.94582 0.6741,0.67409 1.99169,-0.0879 1.99169,-1.15187 z m 11.8125,0.67416 c 0,-0.73941 -0.66445,-1.51802 -1.47657,-1.73024 -1.38382,-0.36164 -1.38216,-0.39201 0.0265,-0.48375 1.52548,-0.0993 2.93896,2.0695 1.9762,3.03226 -0.28938,0.28936 -0.52613,-0.0788 -0.52613,-0.81827 z m -25.94532,-2.04974 c 0.81212,-0.21222 2.14102,-0.21222 2.95313,0 0.81211,0.21223 0.14766,0.38588 -1.47656,0.38588 -1.62422,0 -2.28868,-0.17365 -1.47657,-0.38588 z m -132.48103,-54.89525 -0.19865,-52.52344 82.47656,0.0666 c 45.36211,0.0366 82.00196,0.25812 81.42187,0.49219 -0.73895,0.29817 -1.05468,2.80411 -1.05468,8.37088 0,5.78686 0.28652,7.94882 1.05468,7.95824 0.78262,0.01 0.80033,0.17472 0.0687,0.64018 -0.54232,0.345 -1.14601,1.95285 -1.34153,3.57302 l -0.35553,2.94579 -0.13502,-3.16406 -0.13504,-3.16406 -26.54757,0 -26.54758,0 -0.27583,8.22656 -0.27584,8.22656 -0.17659,-8.22656 -0.17659,-8.22656 -26.57813,0 -26.57812,0 0,8.00206 0,8.00207 22.99218,0.23863 22.99219,0.23864 -22.94595,0.1968 -22.94596,0.1968 -0.31602,4.00781 -0.31602,4.00781 -0.15209,-4.00781 -0.15208,-4.00781 -26.57813,0 -26.57812,0 0,7.95958 0,7.95958 2.32031,0.35151 2.32031,0.35149 -2.30845,0.12642 -2.30847,0.12642 -0.23507,26.78906 c -0.12929,14.73399 -0.32446,3.15352 -0.43372,-25.73438 z m 53.80135,-26.78906 0,-8.01563 -26.57813,0 -26.57812,0 0,8.01563 0,8.01562 26.57812,0 26.57813,0 0,-8.01562 z m -7.23199,2.59214 c -0.86979,-3.4655 0.30988,-5.68016 2.86751,-5.38338 2.42758,0.28167 3.16472,1.99865 2.31375,5.38922 -0.72072,2.87159 -4.46012,2.86737 -5.18126,-0.006 z m 3.71748,-2.28388 c -0.1553,-1.09768 -0.66206,-1.9209 -1.12612,-1.82939 -1.08206,0.21336 -1.55889,2.49301 -0.88744,4.24275 0.76244,1.98691 2.36448,0.0668 2.01356,-2.41336 z m 3.51451,-17.18326 0,-8.01563 -26.57813,0 -26.57812,0 0,8.01563 0,8.01562 26.57812,0 26.57813,0 0,-8.01562 z m -49.78125,1.33593 c 0,-1.85427 -0.4629,-3.49147 -1.05469,-3.73026 -0.58008,-0.23406 0.46406,-0.42558 2.32031,-0.42558 1.85625,0 2.9004,0.19152 2.32031,0.42558 -0.59179,0.23879 -1.05468,1.87599 -1.05468,3.73026 0,2.37501 -0.35606,3.30469 -1.26563,3.30469 -0.90956,0 -1.26562,-0.92968 -1.26562,-3.30469 z m 5.0625,0.35157 c 0,-1.62422 0.37968,-2.95313 0.84375,-2.95313 0.46406,0 0.84375,1.32891 0.84375,2.95313 0,1.62422 -0.37969,2.95312 -0.84375,2.95312 -0.46407,0 -0.84375,-1.3289 -0.84375,-2.95312 z m 3.375,0 0,-2.95313 4.21875,0 4.21875,0 0,2.95313 c 0,1.62422 -0.37969,2.95312 -0.84375,2.95312 -0.46407,0 -0.84375,-1.16147 -0.84375,-2.58104 0,-1.50585 -0.35149,-2.36382 -0.84375,-2.05958 -0.46407,0.28681 -0.84375,1.44828 -0.84375,2.58104 0,1.13277 -0.37969,2.05958 -0.84375,2.05958 -0.46407,0 -0.84375,-1.13906 -0.84375,-2.53125 0,-1.39219 -0.37969,-2.53125 -0.84375,-2.53125 -0.46407,0 -0.84375,1.13906 -0.84375,2.53125 0,1.39219 -0.37969,2.53125 -0.84375,2.53125 -0.46407,0 -0.84375,-1.3289 -0.84375,-2.95312 z m 10.0663,1.61678 c -2.183,-2.63035 2.04808,-5.9265 4.73986,-3.69252 1.95261,1.62053 1.43467,2.49761 -1.47491,2.49761 -2.82986,0 -2.46414,1.19483 0.59062,1.9296 1.3291,0.31969 1.21664,0.42668 -0.5295,0.50378 -1.21935,0.0538 -2.71609,-0.50349 -3.32607,-1.23847 z m 3.85557,-2.88241 c -0.2868,-0.46406 -0.87875,-0.84375 -1.31542,-0.84375 -0.43668,0 -0.79395,0.37969 -0.79395,0.84375 0,0.46406 0.59194,0.84375 1.31542,0.84375 0.72348,0 1.08076,-0.37969 0.79395,-0.84375 z m 81.42188,-0.42187 0,-8.01563 -26.57813,0 -26.57812,0 0,8.01563 0,8.01562 26.57812,0 26.57813,0 0,-8.01562 z m -51.1355,3.65348 c -0.4165,-0.67392 -0.14043,-0.80691 0.8701,-0.41913 2.70773,1.03905 3.25219,-0.4509 0.86137,-2.35728 -1.36254,-1.08645 -2.08352,-2.27343 -1.72916,-2.84679 0.73183,-1.18413 4.72694,-1.32453 4.72694,-0.16614 0,0.4495 -0.56953,0.59872 -1.26563,0.33161 -1.9266,-0.73931 -1.50941,1.01468 0.56968,2.39514 1.20371,0.79924 1.64838,1.70575 1.29212,2.63417 -0.62117,1.61871 -4.4018,1.92287 -5.32542,0.42842 z m 6.2553,-1.97726 c -0.46205,-3.9577 0.42307,-5.33201 2.25452,-3.50056 0.77136,0.77136 0.99566,1.40246 0.49845,1.40246 -1.26735,0 -1.13402,3.98532 0.15066,4.5037 0.58009,0.23406 0.24193,0.45555 -0.75143,0.49218 -1.45404,0.0536 -1.8736,-0.51127 -2.1522,-2.89778 z m 4.3802,0.0113 c 0,-2.51973 0.2786,-2.94334 1.89843,-2.88651 1.04414,0.0366 1.42384,0.25812 0.84375,0.49219 -0.58008,0.23406 -1.05468,1.53299 -1.05468,2.8865 0,1.35352 -0.37969,2.46095 -0.84375,2.46095 -0.46407,0 -0.84375,-1.32891 -0.84375,-2.95313 z m 4.22767,1.69824 c -2.1566,-2.59855 1.31766,-5.80961 4.28248,-3.95806 0.88159,0.55057 1.73847,0.63303 2.01015,0.19344 0.26046,-0.42142 2.6511,-0.72795 5.31256,-0.68118 2.66145,0.0467 3.90918,0.24579 2.7727,0.44228 l -2.06631,0.35728 1.97673,1.49103 c 2.8955,2.18409 1.51059,3.3009 -3.97385,3.20454 -2.66145,-0.0467 -3.98471,-0.2359 -2.94057,-0.4203 1.04414,-0.18439 1.89844,-0.64426 1.89844,-1.02192 0,-1.04835 -2.62303,-1.42479 -5.90625,-0.84761 -2.81351,0.49461 -2.69872,0.75857 0.84375,1.94005 0.69609,0.23216 0.26797,0.45209 -0.95138,0.48872 -1.21935,0.0366 -2.68565,-0.49808 -3.25845,-1.18827 z m 14.33483,-0.43259 c 0,-0.46406 -0.58145,-0.84375 -1.29211,-0.84375 -0.71066,0 -1.51065,-0.56953 -1.77777,-1.26562 -0.26712,-0.6961 -1.26457,-1.26563 -2.21655,-1.26563 -1.66148,0 -1.6494,0.081 0.30121,2.02037 2.08432,2.0723 4.98522,2.86056 4.98522,1.35463 z m -10.54688,-2.53125 c -0.2868,-0.46406 -0.87875,-0.84375 -1.31542,-0.84375 -0.43668,0 -0.79395,0.37969 -0.79395,0.84375 0,0.46406 0.59194,0.84375 1.31542,0.84375 0.72348,0 1.08076,-0.37969 0.79395,-0.84375 z m 86.48438,-0.42187 0,-8.01563 -26.57813,0 -26.57812,0 0,8.01563 0,8.01562 26.57812,0 26.57813,0 0,-8.01562 z m -51.1355,3.65348 c -0.4165,-0.67392 -0.14043,-0.80691 0.8701,-0.41913 2.70773,1.03905 3.25219,-0.4509 0.86137,-2.35728 -1.36254,-1.08645 -2.08352,-2.27343 -1.72916,-2.84679 0.73183,-1.18413 4.72694,-1.32453 4.72694,-0.16614 0,0.4495 -0.56953,0.59872 -1.26563,0.33161 -1.9266,-0.73931 -1.50941,1.01468 0.56968,2.39514 1.20371,0.79924 1.64838,1.70575 1.29212,2.63417 -0.62117,1.61871 -4.4018,1.92287 -5.32542,0.42842 z m 6.2553,-1.97726 c -0.46205,-3.9577 0.42307,-5.33201 2.25452,-3.50056 0.77136,0.77136 0.99566,1.40246 0.49845,1.40246 -1.26735,0 -1.13402,3.98532 0.15066,4.5037 0.58009,0.23406 0.24193,0.45555 -0.75143,0.49218 -1.45404,0.0536 -1.8736,-0.51127 -2.1522,-2.89778 z m 4.3802,0.0113 c 0,-2.51973 0.2786,-2.94334 1.89843,-2.88651 1.04414,0.0366 1.42384,0.25812 0.84375,0.49219 -0.58008,0.23406 -1.05468,1.53299 -1.05468,2.8865 0,1.35352 -0.37969,2.46095 -0.84375,2.46095 -0.46407,0 -0.84375,-1.32891 -0.84375,-2.95313 z m 3.79687,2.10938 c -0.70625,-1.14274 0.24674,-2.53125 1.7373,-2.53125 0.66871,0 1.21583,-0.42031 1.21583,-0.93402 0,-0.51372 -0.56953,-0.71549 -1.26563,-0.44836 -0.69609,0.26711 -1.26562,0.11789 -1.26562,-0.3316 0,-0.4495 0.94922,-0.81727 2.10937,-0.81727 1.84822,0 2.10938,0.36562 2.10938,2.95312 0,2.56846 -0.26827,2.95313 -2.05958,2.95313 -1.13277,0 -2.29424,-0.3797 -2.58105,-0.84375 z m 2.95313,-0.84375 c 0,-0.46407 -0.37969,-0.84375 -0.84375,-0.84375 -0.46407,0 -0.84375,0.37968 -0.84375,0.84375 0,0.46405 0.37968,0.84375 0.84375,0.84375 0.46406,0 0.84375,-0.3797 0.84375,-0.84375 z m 3.375,-1.26563 c 0,-1.62422 0.37968,-2.95312 0.84375,-2.95312 0.46406,0 0.84375,1.3289 0.84375,2.95312 0,1.62422 -0.37969,2.95313 -0.84375,2.95313 -0.46407,0 -0.84375,-1.32891 -0.84375,-2.95313 z m 3.375,0 c 0,-2.71875 0.2009,-2.95312 2.53125,-2.95312 2.33035,0 2.53125,0.23437 2.53125,2.95312 0,1.62422 -0.37969,2.95313 -0.84375,2.95313 -0.46407,0 -0.84375,-1.16148 -0.84375,-2.58105 0,-1.50585 -0.35149,-2.36382 -0.84375,-2.05958 -0.46407,0.28681 -0.84375,1.44828 -0.84375,2.58105 0,1.13276 -0.37969,2.05958 -0.84375,2.05958 -0.46407,0 -0.84375,-1.32891 -0.84375,-2.95313 z M 65.736468,310.54519 c -0.0297,-1.05254 -0.007,-8.27347 0.0502,-16.04652 l 0.10425,-14.13281 -32.112709,0 -32.112704,0 0,-2.0191 c 0,-1.11051 0.600584,-2.24957 1.334633,-2.53125 0.734048,-0.28168 15.180322,-0.51215 32.102833,-0.51215 l 30.768197,0 -0.13888,-15.10861 c -0.0764,-8.30976 0.11772,-15.52381 0.43134,-16.03125 0.69072,-1.1176 37.408952,-1.28246 39.155212,-0.1758 0.62573,0.39654 1.00047,1.43487 0.83273,2.30739 -0.28543,1.48463 -1.45443,1.601 -18.223652,1.81412 l -17.91866,0.22771 0,29.51448 0,29.51446 17.08593,0.0129 c 9.39727,0.006 17.597922,0.33738 18.223652,0.73393 0.62573,0.39654 1.00042,1.43487 0.83264,2.30739 -0.28691,1.49186 -1.49853,1.59987 -20.333032,1.8126 l -20.02794,0.22626 -0.054,-1.91372 z m 564.468752,-1.6875 c -0.0297,-1.05254 -0.007,-8.27347 0.0502,-16.04652 l 0.10424,-14.13281 -32.1127,0 -32.1127,0 0,-2.0191 c 0,-1.11051 0.60057,-2.24957 1.33463,-2.53125 0.73404,-0.28168 15.18032,-0.51215 32.10283,-0.51215 l 30.76819,0 -0.13887,-15.10861 c -0.0763,-8.30976 0.11772,-15.52381 0.43134,-16.03125 0.69072,-1.1176 37.40895,-1.28246 39.15521,-0.1758 0.62573,0.39654 1.00047,1.43487 0.83272,2.30739 -0.28542,1.48463 -1.45442,1.601 -18.22365,1.81412 l -17.91865,0.22771 0,29.51448 0,29.51446 17.08593,0.0129 c 9.39727,0.006 17.59791,0.33738 18.22365,0.73393 0.62573,0.39654 1.00042,1.43487 0.83263,2.30739 -0.2869,1.49186 -1.49852,1.59987 -20.33302,1.8126 l -20.02794,0.22622 -0.054,-1.91371 z m -242.2856,-1.13548 c -1.18296,-2.59632 -0.1093,-4.86407 2.48705,-5.25312 2.08998,-0.31317 3.26119,3.22531 1.90583,5.75784 -1.23848,2.31411 -3.21183,2.08739 -4.39288,-0.50472 z m 3.40091,-1.41104 c -0.14542,-1.5082 -0.64409,-2.74218 -1.10815,-2.74218 -0.46406,0 -0.96273,1.23398 -1.10814,2.74218 -0.20039,2.0783 0.0679,2.74219 1.10814,2.74219 1.04025,0 1.30853,-0.66389 1.10815,-2.74219 z m 2.68873,2.74219 c 0,-0.46406 0.37968,-0.84375 0.84375,-0.84375 0.46406,0 0.84375,0.37969 0.84375,0.84375 0,0.46406 -0.37969,0.84375 -0.84375,0.84375 -0.46407,0 -0.84375,-0.37969 -0.84375,-0.84375 z m 3.70747,-0.3506 c -0.25208,-0.65689 -0.33508,-2.27057 -0.18445,-3.58593 0.21146,-1.84674 0.75441,-2.43774 2.38323,-2.59413 l 2.10937,-0.20253 -2.10937,0.98169 c -2.05201,0.95498 -2.05969,0.99051 -0.28228,1.30656 2.21604,0.39402 3.19597,2.54559 1.88102,4.13001 -1.24701,1.50256 -3.21434,1.48409 -3.79752,-0.0357 z m 3.04253,-1.3369 c 0,-0.9375 -0.5625,-1.6875 -1.26563,-1.6875 -1.28453,0 -1.73075,1.78487 -0.70312,2.8125 1.0697,1.0697 1.96875,0.55595 1.96875,-1.125 z m 12.68615,1.89844 c 0.0165,-0.34804 0.57252,-1.58203 1.23572,-2.74219 1.6297,-2.85086 1.56887,-3.19923 -0.63281,-3.62329 -1.33652,-0.25742 -1.06597,-0.39965 0.91406,-0.48055 1.54688,-0.0632 2.68405,0.16986 2.52705,0.5179 -0.15701,0.34805 -0.83445,2.05664 -1.50545,3.79688 -1.06899,2.77249 -2.62319,4.3222 -2.53857,2.53125 z m 5.66541,0.074 c 1.2777,-0.51555 1.4233,-5.34744 0.16114,-5.34744 -0.49145,0 -0.65888,-0.37969 -0.37208,-0.84375 0.28681,-0.46406 1.06859,-0.84375 1.7373,-0.84375 0.85166,0 1.21583,0.98985 1.21583,3.3047 0,1.85427 0.46289,3.49147 1.05468,3.73025 0.58009,0.23407 -0.27421,0.42559 -1.89843,0.42559 -1.62422,0 -2.47852,-0.19152 -1.89844,-0.42559 z m 6.75,-0.26617 c 2.31101,-0.98376 2.49601,-2.55002 0.30121,-2.55002 -2.05749,0 -2.87446,-2.11471 -1.31649,-3.4077 2.17783,-1.80744 3.88596,-0.29297 3.59786,3.18999 -0.22197,2.68352 -0.58646,3.20196 -2.37164,3.37338 -2.07862,0.19957 -2.0817,0.19074 -0.21094,-0.60563 z m 1.89844,-4.65939 c 0,-0.6961 -0.56953,-1.26563 -1.26563,-1.26563 -0.69609,0 -1.26562,0.56953 -1.26562,1.26563 0,0.6961 0.56953,1.26562 1.26562,1.26562 0.6961,0 1.26563,-0.56952 1.26563,-1.26562 z m 2.53125,4.64062 c 0,-0.46406 0.37968,-0.84375 0.84375,-0.84375 0.46406,0 0.84375,0.37969 0.84375,0.84375 0,0.46406 -0.37969,0.84375 -0.84375,0.84375 -0.46407,0 -0.84375,-0.37969 -0.84375,-0.84375 z m 3.07469,0.19671 c -0.25274,-0.40896 0.33745,-0.71544 1.31155,-0.68107 2.38673,0.0842 3.00554,-2.03704 0.76515,-2.62291 -1.01279,-0.26484 -1.77639,-1.14761 -1.77639,-2.05361 0,-1.19891 0.56972,-1.56088 2.32031,-1.47419 1.98943,0.0985 2.04959,0.16704 0.42187,0.48055 -2.37999,0.45842 -2.45446,1.59358 -0.14418,2.19773 2.40616,0.62922 1.91868,4.27611 -0.61995,4.63788 -1.00035,0.14255 -2.02562,-0.0754 -2.27836,-0.48436 z m 8.73781,-0.19671 c 0,-0.46406 -0.75938,-0.84375 -1.6875,-0.84375 -0.92813,0 -1.6875,-0.30711 -1.6875,-0.68248 0,-1.04677 2.47385,-4.08147 2.50442,-3.07221 0.0148,0.48727 -0.4288,1.34157 -0.98567,1.89844 -0.7875,0.7875 -0.67031,1.0125 0.52734,1.0125 1.26094,0 1.44815,-0.45847 1.0336,-2.53125 -0.36479,-1.82391 -0.18428,-2.53125 0.64597,-2.53125 1.11765,0 2.17364,4.66148 1.50821,6.65777 -0.38852,1.16556 -1.85887,1.23851 -1.85887,0.0922 z m 4.85156,0.0188 c 2.31101,-0.98381 2.49601,-2.55006 0.30121,-2.55006 -2.05749,0 -2.87446,-2.11472 -1.31649,-3.40771 2.17783,-1.80744 3.88596,-0.29297 3.59786,3.18999 -0.22197,2.68352 -0.58646,3.20196 -2.37164,3.37338 -2.07862,0.19957 -2.0817,0.19074 -0.21094,-0.60563 z m 1.89844,-4.65944 c 0,-0.6961 -0.56953,-1.26562 -1.26563,-1.26562 -0.69609,0 -1.26562,0.56952 -1.26562,1.26562 0,0.6961 0.56953,1.26563 1.26562,1.26563 0.6961,0 1.26563,-0.56953 1.26563,-1.26563 z m 4.00781,4.65941 c 2.31101,-0.98378 2.49601,-2.55003 0.30121,-2.55003 -2.05749,0 -2.87446,-2.11472 -1.31649,-3.40771 2.17783,-1.80744 3.88596,-0.29297 3.59786,3.18999 -0.22197,2.68352 -0.58646,3.20196 -2.37164,3.37338 -2.07862,0.19957 -2.0817,0.19074 -0.21094,-0.60563 z m 1.89844,-4.65941 c 0,-0.6961 -0.56953,-1.26562 -1.26563,-1.26562 -0.69609,0 -1.26562,0.56952 -1.26562,1.26562 0,0.6961 0.56953,1.26563 1.26562,1.26563 0.6961,0 1.26563,-0.56953 1.26563,-1.26563 z m 11.75537,3.69015 c -1.15738,-2.1626 0.17128,-5.79952 2.11873,-5.79952 2.02208,0 3.33308,3.24042 2.26204,5.59109 -1.13259,2.48578 -3.11157,2.57994 -4.38077,0.20843 z m 3.43213,-2.07296 c 0,-3.81233 -1.99177,-3.52181 -2.37377,0.34622 -0.19536,1.97822 0.08,2.67722 1.05468,2.67722 0.95087,0 1.31909,-0.84398 1.31909,-3.02344 z m 2.53125,3.02344 c 0,-0.46407 0.37968,-0.84375 0.84375,-0.84375 0.46406,0 0.84375,0.37968 0.84375,0.84375 0,0.46405 -0.37969,0.84375 -0.84375,0.84375 -0.46407,0 -0.84375,-0.3797 -0.84375,-0.84375 z m 3.375,0.26532 c 0,-0.31815 0.79915,-1.4291 1.7759,-2.46879 1.84695,-1.966 1.45971,-4.15362 -0.59562,-3.36492 -0.64916,0.24912 -1.18028,0.0587 -1.18028,-0.42303 0,-0.48177 0.85042,-0.75462 1.88981,-0.60633 2.37203,0.33842 2.92053,2.85805 1.06784,4.90524 -1.32913,1.46868 -1.29744,1.57819 0.55885,1.93169 1.50787,0.28715 1.32688,0.40162 -0.77432,0.48966 -1.5082,0.0632 -2.74218,-0.14539 -2.74218,-0.46352 z m 6.7799,-0.0545 c 0.0165,-0.34805 0.57252,-1.58203 1.23572,-2.7422 1.6297,-2.85086 1.56887,-3.19923 -0.63281,-3.62328 -1.37286,-0.26443 -1.13928,-0.39747 0.84375,-0.48056 1.50821,-0.0632 2.74219,0.0901 2.74219,0.34058 0,0.25053 -0.7671,1.95911 -1.70465,3.79688 -1.59617,3.12876 -2.55336,4.17241 -2.4842,2.70858 z m 5.36507,-0.56155 c -0.25208,-0.65689 -0.33508,-2.27057 -0.18445,-3.58593 0.21146,-1.84674 0.75441,-2.43773 2.38323,-2.59412 l 2.10937,-0.20253 -2.10937,0.96386 c -1.95247,0.89217 -1.98386,0.99295 -0.42188,1.35482 2.2682,0.52551 3.00756,1.89249 2.02082,3.73624 -0.97147,1.8152 -3.15462,2.00356 -3.79772,0.32766 z m 3.04253,-1.3368 c 0,-0.9375 -0.5625,-1.6875 -1.26563,-1.6875 -0.70312,0 -1.26562,0.75 -1.26562,1.6875 0,0.93751 0.5625,1.6875 1.26562,1.6875 0.70313,0 1.26563,-0.74999 1.26563,-1.6875 z m 4.00781,1.66121 c 2.31027,-0.92862 2.49982,-2.50496 0.30121,-2.50496 -2.05749,0 -2.87446,-2.11471 -1.31649,-3.4077 1.84073,-1.52767 3.75747,-0.31934 3.75747,2.36872 0,2.66636 -1.35663,4.44132 -3.33282,4.3605 -0.80223,-0.0328 -0.57391,-0.34848 0.59063,-0.81656 z m 1.89844,-4.61433 c 0,-0.6961 -0.56953,-1.26563 -1.26563,-1.26563 -0.69609,0 -1.26562,0.56953 -1.26562,1.26563 0,0.69609 0.56953,1.26562 1.26562,1.26562 0.6961,0 1.26563,-0.56953 1.26563,-1.26562 z m 3.16406,4.92551 c 1.2777,-0.51556 1.42331,-5.34745 0.16114,-5.34745 -0.49145,0 -0.65888,-0.37969 -0.37208,-0.84375 0.28681,-0.46406 1.11085,-0.84375 1.83121,-0.84375 1.04985,0 1.1952,0.61041 0.7326,3.07635 -0.40421,2.15462 -0.24274,3.28836 0.53891,3.78396 0.73774,0.46774 0.25804,0.6894 -1.41522,0.65391 -1.39219,-0.0295 -2.05664,-0.24521 -1.47656,-0.47927 z m 5.90625,0 c 1.2777,-0.51556 1.42331,-5.34745 0.16114,-5.34745 -0.49145,0 -0.65888,-0.37969 -0.37208,-0.84375 0.28681,-0.46406 1.0858,-0.84375 1.77553,-0.84375 0.98349,0 1.1308,0.6571 0.68272,3.04553 -0.40758,2.17259 -0.23716,3.25716 0.59458,3.78394 0.81033,0.51324 0.39393,0.72207 -1.36533,0.68475 -1.39218,-0.0295 -2.05664,-0.24521 -1.47656,-0.47927 z M 89.018048,304.31652 c -1.09972,-1.09971 -1.29004,-4.99185 -1.29004,-26.38101 0,-26.31884 0.35083,-28.962 3.67486,-27.68644 1.19959,0.46032 1.38764,2.194 1.38764,12.79334 l 0,12.26085 36.556822,0 36.55681,0 2.76508,-9.91406 c 3.44759,-12.36114 4.69304,-15.39844 6.31417,-15.39844 1.84859,0 2.19138,0.92226 8.54834,22.99801 3.17468,11.02468 6.01462,19.7575 6.31099,19.40625 0.29635,-0.35125 3.10089,-9.56129 6.23231,-20.46676 3.1314,-10.90547 6.23279,-20.3841 6.89197,-21.06362 1.05219,-1.08465 1.35243,-1.08156 2.45929,0.0253 0.69342,0.69344 3.99087,10.67411 7.32764,22.17928 l 6.06685,20.9185 3.51971,-12.08441 c 1.93584,-6.64643 4.77274,-16.39059 6.30423,-21.65369 2.76828,-9.51345 4.16461,-11.59054 6.2651,-9.31954 0.59522,0.64354 3.64726,10.09272 6.78229,20.99819 3.13506,10.90547 5.91136,20.18248 6.16959,20.61556 0.25824,0.43309 1.53292,-2.95485 2.83261,-7.52876 1.2997,-4.5739 2.68441,-8.63751 3.07713,-9.03023 0.39272,-0.39272 9.42056,-0.61181 20.06186,-0.48686 l 19.34783,0.22715 0,2.10937 0,2.10938 -17.90767,0.22765 -17.90766,0.22765 -2.077,6.94423 c -1.14235,3.81932 -2.66504,8.98642 -3.38376,11.48242 -2.46136,8.54788 -4.70322,9.04468 -7.12531,1.57898 -0.94099,-2.90038 -3.67288,-12.10781 -6.07087,-20.46093 -2.398,-8.35313 -4.62362,-15.67441 -4.94582,-16.26952 -0.32221,-0.59511 -3.22166,8.09083 -6.44324,19.30209 -3.22159,11.21126 -6.30978,21.00052 -6.86269,21.7539 -2.29657,3.1293 -3.80488,-0.10322 -10.00902,-21.45069 -3.36544,-11.58 -6.34437,-20.485 -6.61984,-19.78891 -0.27545,0.6961 -3.07606,10.15389 -6.22355,21.0173 -5.58528,19.27726 -7.23111,22.90525 -9.40383,20.72936 -0.45298,-0.45362 -3.59585,-10.39623 -6.98417,-22.09468 -4.43157,-15.30039 -6.32523,-20.74685 -6.74728,-19.40625 -0.32268,1.02501 -1.57964,5.18592 -2.79324,9.24646 l -2.20655,7.38281 -38.33955,0 -38.339572,0 0,12.14411 c 0,9.91023 -0.22832,12.23171 -1.24121,12.62039 -0.68266,0.26198 -1.82173,-0.10422 -2.53125,-0.81374 z m 564.468752,-1.6875 c -1.09972,-1.09971 -1.29004,-4.99185 -1.29004,-26.38101 0,-26.31884 0.35083,-28.962 3.67486,-27.68644 1.19959,0.46032 1.38764,2.194 1.38764,12.79334 l 0,12.26085 36.55682,0 36.55681,0 2.76508,-9.91406 c 3.44759,-12.36114 4.69304,-15.39844 6.31417,-15.39844 1.84859,0 2.19138,0.92226 8.54834,22.99801 3.17468,11.02468 6.01462,19.7575 6.31099,19.40625 0.29635,-0.35125 3.10089,-9.56129 6.23231,-20.46676 3.1314,-10.90547 6.23279,-20.3841 6.89197,-21.06362 1.05219,-1.08465 1.35243,-1.08156 2.45929,0.0253 0.69342,0.69344 3.99087,10.67411 7.32764,22.17928 l 6.06685,20.9185 3.51971,-12.08441 c 1.93584,-6.64643 4.77274,-16.39059 6.30423,-21.65369 2.76828,-9.51345 4.16462,-11.59054 6.2651,-9.31954 0.59522,0.64354 3.64726,10.09272 6.78229,20.99819 3.13506,10.90547 5.91136,20.18248 6.16959,20.61556 0.25824,0.43309 1.53292,-2.95485 2.83261,-7.52876 1.2997,-4.5739 2.68441,-8.63751 3.07713,-9.03023 0.39272,-0.39272 9.42056,-0.61181 20.06186,-0.48686 l 19.34783,0.22715 0,2.10937 0,2.10938 -17.90767,0.22765 -17.90766,0.22765 -2.077,6.94423 c -1.14235,3.81932 -2.66504,8.98642 -3.38376,11.48242 -2.46136,8.54788 -4.70322,9.04468 -7.12531,1.57898 -0.94099,-2.90038 -3.67288,-12.10781 -6.07087,-20.46093 -2.398,-8.35313 -4.62362,-15.67441 -4.94582,-16.26952 -0.32221,-0.59511 -3.22166,8.09083 -6.44324,19.30209 -3.22159,11.21126 -6.30978,21.00052 -6.86269,21.7539 -2.29657,3.1293 -3.80488,-0.10322 -10.00902,-21.45069 -3.36544,-11.58 -6.34437,-20.485 -6.61984,-19.78891 -0.27545,0.6961 -3.07606,10.15389 -6.22355,21.0173 -5.58528,19.27726 -7.23111,22.90525 -9.40383,20.72936 -0.45298,-0.45362 -3.59585,-10.39623 -6.98417,-22.09468 -4.43157,-15.30039 -6.32523,-20.74685 -6.74728,-19.40625 -0.32268,1.02501 -1.57964,5.18592 -2.79324,9.24646 l -2.20655,7.38281 -38.33955,0 -38.33957,0 0,12.14411 c 0,9.91023 -0.22832,12.23171 -1.24121,12.62039 -0.68266,0.26198 -1.82173,-0.10422 -2.53125,-0.81374 z M 382.39014,292.03415 c -0.57043,-0.57043 -1.03713,-1.83448 -1.03713,-2.80901 0,-3.99809 4.65462,-5.29389 5.59254,-1.5569 0.94022,3.74614 -2.18242,6.73889 -4.55541,4.36591 z m 3.04211,-3.3445 c -0.1553,-1.09768 -0.66206,-1.9209 -1.12612,-1.82939 -1.08206,0.21336 -1.55889,2.49301 -0.88744,4.24275 0.76244,1.98691 2.36448,0.0668 2.01356,-2.41336 z m 2.67076,3.48861 c 0,-0.46406 0.37968,-0.84375 0.84375,-0.84375 0.46406,0 0.84375,0.37969 0.84375,0.84375 0,0.46406 -0.37969,0.84375 -0.84375,0.84375 -0.46407,0 -0.84375,-0.37969 -0.84375,-0.84375 z m 5.90625,0 c 0,-0.46406 -0.75938,-0.84375 -1.6875,-0.84375 -2.02606,0 -2.05211,-0.22246 -0.40021,-3.4169 1.68096,-3.25063 3.77521,-3.2847 3.77521,-0.0614 0,2.75163 1.88291,4.7514 3.78614,4.02106 1.81433,-0.69623 1.58003,-2.30882 -0.41114,-2.82952 -0.93397,-0.24425 -1.6875,-1.1509 -1.6875,-2.03039 0,-1.19478 0.57575,-1.56481 2.32031,-1.49122 1.42754,0.0602 1.75218,0.24634 0.84375,0.48375 -1.93625,0.50599 -1.86613,1.30041 0.23031,2.60967 1.37915,0.86129 1.53546,1.38629 0.81407,2.73421 -0.99326,1.85593 -4.66549,2.27809 -5.33714,0.61357 -0.34046,-0.84375 -0.4389,-0.84375 -0.49218,0 -0.0786,1.24416 -1.75412,1.44564 -1.75412,0.21095 z m 0,-3.00292 c 0,-0.72348 -0.37969,-1.08076 -0.84375,-0.79395 -0.46407,0.2868 -0.84375,0.87875 -0.84375,1.31542 0,0.43667 0.37968,0.79395 0.84375,0.79395 0.46406,0 0.84375,-0.59194 0.84375,-1.31542 z m 19.43615,3.21386 c 0.0165,-0.34804 0.57252,-1.58203 1.23572,-2.74219 1.66997,-2.9213 1.58438,-3.21463 -1.05469,-3.61442 -1.27616,-0.19332 0.43242,-0.40838 3.79688,-0.4779 3.36446,-0.0695 6.11719,0.0558 6.11719,0.27837 0,1.30181 -2.83886,7.18895 -3.46661,7.18895 -1.03743,0 -0.90018,-0.90204 0.51348,-3.375 1.67828,-2.93584 1.5676,-3.375 -0.85058,-3.375 -1.68134,0 -2.3937,0.69354 -3.46662,3.375 -1.17053,2.92547 -2.91337,4.61734 -2.82477,2.74219 z m 13.4701,-0.21094 c 0,-0.46406 -0.75938,-0.84375 -1.6875,-0.84375 -2.02606,0 -2.05211,-0.22246 -0.40021,-3.4169 1.73441,-3.35398 3.50926,-3.18595 3.92458,0.37155 0.1837,1.57349 0.19359,3.28208 0.022,3.79687 -0.38854,1.16555 -1.85889,1.23851 -1.85889,0.0922 z m 0,-3.00292 c 0,-0.72348 -0.37969,-1.08076 -0.84375,-0.79395 -0.46407,0.2868 -0.84375,0.87875 -0.84375,1.31542 0,0.43667 0.37968,0.79395 0.84375,0.79395 0.46406,0 0.84375,-0.59194 0.84375,-1.31542 z m 3.375,3.00292 c 0,-0.46406 0.37968,-0.84375 0.84375,-0.84375 0.46406,0 0.84375,0.37969 0.84375,0.84375 0,0.46406 -0.37969,0.84375 -0.84375,0.84375 -0.46407,0 -0.84375,-0.37969 -0.84375,-0.84375 z m 2.53125,0.14395 c 0,-0.3849 0.81587,-0.66966 1.81304,-0.63282 2.41748,0.0894 3.06973,-2.02672 0.80711,-2.6184 -1.0128,-0.26486 -1.7764,-1.14763 -1.7764,-2.05363 0,-1.19479 0.57575,-1.56482 2.32031,-1.49122 1.42754,0.0602 1.75218,0.24634 0.84375,0.48375 -1.93625,0.50599 -1.86613,1.30041 0.23031,2.60966 1.37915,0.8613 1.53546,1.38629 0.81407,2.73421 -0.86804,1.62195 -5.05219,2.42399 -5.05219,0.96845 z m 6.75,-0.0589 c 0,-0.48178 0.53112,-0.67215 1.18028,-0.42304 0.64916,0.2491 1.43292,0.0441 1.7417,-0.45549 0.30878,-0.49962 -0.31726,-1.26083 -1.39122,-1.69154 -1.45992,-0.58552 -1.58006,-0.79662 -0.47608,-0.83661 0.81212,-0.0294 1.47657,-0.66363 1.47657,-1.40938 0,-0.85859 -0.4642,-1.17777 -1.26563,-0.87023 -0.69609,0.26711 -1.26562,0.0915 -1.26562,-0.3903 0,-0.48177 0.8543,-0.75461 1.89843,-0.60633 1.60741,0.22829 1.89844,0.78702 1.89844,3.64463 0,2.85761 -0.29103,3.41633 -1.89844,3.64462 -1.04413,0.14829 -1.89843,-0.12455 -1.89843,-0.60633 z m 5.90625,0 c 0,-0.48178 0.53112,-0.67215 1.18028,-0.42304 0.64916,0.2491 1.43292,0.0441 1.7417,-0.45549 0.30878,-0.49962 -0.31726,-1.26083 -1.39122,-1.69154 -1.45992,-0.58552 -1.58006,-0.79662 -0.47608,-0.83661 0.81212,-0.0294 1.47657,-0.66363 1.47657,-1.40938 0,-0.85859 -0.4642,-1.17777 -1.26563,-0.87023 -0.69609,0.26711 -1.26562,0.0915 -1.26562,-0.3903 0,-0.48177 0.8543,-0.75461 1.89843,-0.60633 1.60741,0.22829 1.89844,0.78702 1.89844,3.64463 0,2.85761 -0.29103,3.41633 -1.89844,3.64462 -1.04413,0.14829 -1.89843,-0.12455 -1.89843,-0.60633 z m 5.48437,-0.0851 c -0.2868,-0.46407 -0.22601,-1.31836 0.13511,-1.89844 0.36112,-0.58008 0.54619,-1.90898 0.41129,-2.95313 -0.2005,-1.55178 0.16194,-1.89843 1.98485,-1.89843 1.82292,0 2.18536,0.34665 1.98485,1.89843 -0.1349,1.04415 0.0502,2.37305 0.41129,2.95313 0.95782,1.53859 -0.0939,2.74219 -2.39614,2.74219 -1.10538,0 -2.24444,-0.37969 -2.53125,-0.84375 z m 3.63516,-0.90703 c -0.16629,-0.49887 -0.66305,-0.90704 -1.10391,-0.90704 -0.44085,0 -0.93762,0.40817 -1.1039,0.90704 -0.16629,0.49886 0.33046,0.90703 1.1039,0.90703 0.77344,0 1.2702,-0.40817 1.10391,-0.90703 z m 0.16172,-4.20527 c 0,-0.43668 -0.56953,-0.79395 -1.26563,-0.79395 -1.30478,0 -1.67627,0.99559 -0.72606,1.94582 0.6741,0.67409 1.99169,-0.0879 1.99169,-1.15187 z m 17.53536,3.78114 c -1.19462,-2.62191 -0.10314,-4.86567 2.56004,-5.26268 2.19403,-0.32707 3.30491,3.0168 1.88415,5.6715 -1.28534,2.4017 -3.2458,2.22135 -4.44419,-0.40882 z m 3.40091,-1.41103 c -0.14542,-1.50821 -0.64409,-2.74219 -1.10815,-2.74219 -0.46406,0 -0.96273,1.23398 -1.10814,2.74219 -0.20039,2.07829 0.0679,2.74219 1.10814,2.74219 1.04025,0 1.30853,-0.6639 1.10815,-2.74219 z m 2.68873,2.74219 c 0,-0.46407 0.37968,-0.84375 0.84375,-0.84375 0.46406,0 0.84375,0.37968 0.84375,0.84375 0,0.46406 -0.37969,0.84375 -0.84375,0.84375 -0.46407,0 -0.84375,-0.37969 -0.84375,-0.84375 z m 3.375,0.26532 c 0,-0.31814 0.79915,-1.42909 1.7759,-2.46879 1.84695,-1.966 1.45971,-4.15362 -0.59562,-3.36491 -0.64916,0.24911 -1.18028,0.0851 -1.18028,-0.36435 0,-0.4495 0.94922,-0.81727 2.10937,-0.81727 1.65854,0 2.10938,0.42876 2.10938,2.00606 0,1.10333 -0.61993,2.52056 -1.37761,3.14938 -1.2472,1.03508 -1.18729,1.19665 0.6328,1.70671 1.77057,0.49618 1.68326,0.57342 -0.73176,0.64749 -1.5082,0.0463 -2.74218,-0.17619 -2.74218,-0.49432 z m 6.7799,-0.0545 c 0.0165,-0.34805 0.57252,-1.58203 1.23572,-2.74219 1.66997,-2.9213 1.58438,-3.21463 -1.05469,-3.61441 -1.82345,-0.27623 -1.62773,-0.37857 0.91407,-0.47792 1.77891,-0.0695 3.10592,0.15835 2.94892,0.50639 -0.15701,0.34805 -0.83445,2.05664 -1.50545,3.79688 -1.06899,2.77248 -2.62319,4.3222 -2.53857,2.53125 z m 5.36507,-0.56155 c -0.25208,-0.65689 -0.33508,-2.27056 -0.18445,-3.58593 0.21146,-1.84674 0.75441,-2.43773 2.38323,-2.59412 l 2.10937,-0.20252 -2.10937,0.98167 c -2.05201,0.95498 -2.05969,0.99052 -0.28228,1.30656 2.21604,0.39403 3.19597,2.5456 1.88102,4.13002 -1.24701,1.50256 -3.21434,1.48408 -3.79752,-0.0356 z m 3.04253,-1.33685 c 0,-0.9375 -0.5625,-1.6875 -1.26563,-1.6875 -1.28453,0 -1.73075,1.78487 -0.70312,2.8125 1.0697,1.0697 1.96875,0.55595 1.96875,-1.125 z m 4.00781,1.70628 c 2.31101,-0.98378 2.49601,-2.55003 0.30121,-2.55003 -2.05749,0 -2.87446,-2.11471 -1.31649,-3.4077 2.17783,-1.80745 3.88596,-0.29297 3.59786,3.18998 -0.22197,2.68352 -0.58646,3.20197 -2.37164,3.37338 -2.07862,0.19958 -2.0817,0.19075 -0.21094,-0.60563 z m 1.89844,-4.6594 c 0,-0.6961 -0.56953,-1.26563 -1.26563,-1.26563 -0.69609,0 -1.26562,0.56953 -1.26562,1.26563 0,0.69609 0.56953,1.26562 1.26562,1.26562 0.6961,0 1.26563,-0.56953 1.26563,-1.26562 z m 2.86372,4.29002 c -0.25208,-0.65689 -0.33508,-2.27057 -0.18445,-3.58594 0.21146,-1.84673 0.75441,-2.43773 2.38323,-2.59412 l 2.10937,-0.20253 -2.10937,0.98169 c -2.05201,0.95498 -2.05969,0.99051 -0.28228,1.30655 2.21604,0.39403 3.19597,2.5456 1.88102,4.13002 -1.24701,1.50256 -3.21434,1.48409 -3.79752,-0.0357 z m 3.04253,-1.3369 c 0,-0.9375 -0.5625,-1.6875 -1.26563,-1.6875 -1.28453,0 -1.73075,1.78487 -0.70312,2.8125 1.0697,1.0697 1.96875,0.55595 1.96875,-1.125 z m -120.4875,-15.35617 c -2.37627,-2.37627 -0.65672,-6.88452 2.45792,-6.44413 1.49368,0.21119 2.0842,0.89735 2.28586,2.6561 0.44054,3.84202 -2.41198,6.11983 -4.74378,3.78803 z m 3.06674,-3.31986 c -0.1553,-1.09768 -0.66206,-1.9209 -1.12612,-1.82939 -1.08206,0.21336 -1.55889,2.49301 -0.88744,4.24275 0.76244,1.98691 2.36448,0.0668 2.01356,-2.41336 z m 2.67076,3.48861 c 0,-0.46406 0.37968,-0.84375 0.84375,-0.84375 0.46406,0 0.84375,0.37969 0.84375,0.84375 0,0.46406 -0.37969,0.84375 -0.84375,0.84375 -0.46407,0 -0.84375,-0.37969 -0.84375,-0.84375 z m 3.375,0.0851 c 0,-0.48178 0.53112,-0.67214 1.18028,-0.42303 0.64916,0.2491 1.43292,0.0441 1.7417,-0.45549 0.30878,-0.49963 -0.31726,-1.26083 -1.39122,-1.69154 -1.45992,-0.58553 -1.58006,-0.79663 -0.47608,-0.83662 0.81212,-0.0294 1.47657,-0.66363 1.47657,-1.40938 0,-0.85859 -0.4642,-1.17777 -1.26563,-0.87023 -0.69609,0.26711 -1.26562,0.0915 -1.26562,-0.39029 0,-0.48177 0.8543,-0.75462 1.89843,-0.60633 1.60741,0.22828 1.89844,0.787 1.89844,3.64462 0,2.85761 -0.29103,3.41634 -1.89844,3.64462 -1.04413,0.14829 -1.89843,-0.12456 -1.89843,-0.60633 z m 20.63462,-0.14544 c -0.26631,-0.43091 -0.18876,-1.25808 0.17236,-1.83817 0.36112,-0.58007 0.54619,-1.90898 0.41129,-2.95312 -0.2014,-1.55876 0.16053,-1.89843 2.02283,-1.89843 1.95821,0 2.21358,0.28531 1.86895,2.08816 -0.46715,2.44373 1.9756,5.13329 3.96789,4.36878 1.83209,-0.70305 1.61037,-2.31424 -0.39044,-2.83747 -0.93397,-0.24424 -1.6875,-1.15089 -1.6875,-2.03038 0,-1.19479 0.57575,-1.56481 2.32031,-1.49122 1.42754,0.0602 1.75218,0.24634 0.84375,0.48375 -1.93625,0.50599 -1.86613,1.30041 0.23031,2.60967 1.35288,0.84488 1.52841,1.39945 0.84632,2.67394 -0.68589,1.2816 -1.80043,1.60798 -5.4912,1.60798 -2.54685,0 -4.84855,-0.35257 -5.11487,-0.78349 z m 3.67241,-0.84675 c -0.16629,-0.49887 -0.66305,-0.90704 -1.10391,-0.90704 -0.44085,0 -0.93762,0.40817 -1.1039,0.90704 -0.16629,0.49886 0.33046,0.90703 1.1039,0.90703 0.77344,0 1.2702,-0.40817 1.10391,-0.90703 z m 0.16172,-4.20527 c 0,-0.43668 -0.56953,-0.79395 -1.26563,-0.79395 -1.30478,0 -1.67627,0.99558 -0.72606,1.94581 0.6741,0.67409 1.99169,-0.0879 1.99169,-1.15186 z m 8.4375,5.19746 c 0,-0.48178 0.53112,-0.67214 1.18028,-0.42303 0.64916,0.2491 1.43292,0.0441 1.7417,-0.45549 0.30878,-0.49963 -0.31726,-1.26083 -1.39122,-1.69154 -1.45992,-0.58553 -1.58006,-0.79663 -0.47608,-0.83662 0.81212,-0.0294 1.47657,-0.66363 1.47657,-1.40938 0,-0.85859 -0.4642,-1.17777 -1.26563,-0.87023 -0.69609,0.26711 -1.26562,0.0915 -1.26562,-0.39029 0,-0.48177 0.8543,-0.75462 1.89843,-0.60633 1.60741,0.22828 1.89844,0.787 1.89844,3.64462 0,2.85761 -0.29103,3.41634 -1.89844,3.64462 -1.04413,0.14829 -1.89843,-0.12456 -1.89843,-0.60633 z m 5.90625,-0.0851 c 0,-0.46406 0.37969,-0.84375 0.84375,-0.84375 0.46406,0 0.84375,0.37969 0.84375,0.84375 0,0.46406 -0.37969,0.84375 -0.84375,0.84375 -0.46406,0 -0.84375,-0.37969 -0.84375,-0.84375 z m 3.56838,-0.14411 c -0.57043,-0.57043 -1.03713,-1.83448 -1.03713,-2.80901 0,-3.99809 4.65462,-5.29389 5.59254,-1.5569 0.94022,3.74614 -2.18242,6.73889 -4.55541,4.36591 z m 3.04211,-3.3445 c -0.1553,-1.09768 -0.66206,-1.9209 -1.12612,-1.82939 -1.08206,0.21336 -1.55889,2.49301 -0.88744,4.24275 0.76244,1.98691 2.36448,0.0668 2.01356,-2.41336 z m 3.30357,3.77361 c 1.2777,-0.51556 1.4233,-5.34745 0.16114,-5.34745 -0.49145,0 -0.65888,-0.37969 -0.37208,-0.84375 0.28681,-0.46406 1.06859,-0.84375 1.7373,-0.84375 0.85166,0 1.21583,0.98985 1.21583,3.30469 0,1.85427 0.46289,3.49147 1.05468,3.73026 0.58009,0.23406 -0.27421,0.42558 -1.89843,0.42558 -1.62422,0 -2.47852,-0.19152 -1.89844,-0.42558 z m 6.11719,-0.0562 c 2.25376,-0.85792 2.57036,-2.31609 0.60752,-2.79803 -2.53597,-0.62266 -2.52302,-3.66652 0.0171,-4.02739 1.3355,-0.18973 2.16576,0.33612 2.82898,1.7917 1.24132,2.72438 -0.26506,5.67428 -2.85051,5.58211 -1.26233,-0.045 -1.45805,-0.22295 -0.60313,-0.54839 z m 2.33788,-4.60569 c -0.52149,-1.56451 -2.33788,-1.824 -2.33788,-0.33399 0,0.73476 0.60117,1.33593 1.33593,1.33593 0.73477,0 1.18565,-0.45088 1.00195,-1.00195 z m 12.19925,4.23282 c -0.57043,-0.57043 -1.03713,-1.83448 -1.03713,-2.80901 0,-3.99808 4.65462,-5.29389 5.59254,-1.5569 0.94022,3.74614 -2.18242,6.7389 -4.55541,4.36591 z m 3.04211,-3.34449 c -0.1553,-1.09768 -0.66206,-1.9209 -1.12612,-1.82939 -1.08206,0.21335 -1.55889,2.49301 -0.88744,4.24275 0.76244,1.9869 2.36448,0.0668 2.01356,-2.41337 z m 2.67076,3.48861 c 0,-0.46407 0.37968,-0.84375 0.84375,-0.84375 0.46406,0 0.84375,0.37968 0.84375,0.84375 0,0.46406 -0.37969,0.84375 -0.84375,0.84375 -0.46407,0 -0.84375,-0.37969 -0.84375,-0.84375 z m 4.57126,-1.75894 c 2.19811,-2.61231 2.18954,-4.65578 -0.0159,-3.80944 -0.64919,0.24911 -1.18031,0.0851 -1.18031,-0.36435 0,-0.4495 0.94922,-0.81727 2.10937,-0.81727 1.65854,0 2.10938,0.42876 2.10938,2.00606 0,1.10333 -0.61993,2.52056 -1.37762,3.14938 -1.24719,1.03508 -1.18729,1.19665 0.63281,1.70671 1.61653,0.453 1.3758,0.57987 -1.22863,0.64749 l -3.23908,0.0842 2.19003,-2.60269 z m 5.58364,1.96987 c 0.0165,-0.34804 0.57252,-1.58203 1.23572,-2.74218 1.66997,-2.9213 1.58438,-3.21463 -1.05469,-3.61442 -1.27616,-0.19332 0.43242,-0.40838 3.79688,-0.47791 3.36446,-0.0695 6.11719,0.0558 6.11719,0.27837 0,1.30182 -2.83886,7.18896 -3.46661,7.18896 -1.03743,0 -0.90018,-0.90204 0.51348,-3.375 1.67828,-2.93585 1.5676,-3.375 -0.85058,-3.375 -1.68134,0 -2.3937,0.69354 -3.46662,3.375 -1.17053,2.92547 -2.91337,4.61734 -2.82477,2.74218 z m 11.1076,-0.37972 c -0.55688,-0.55687 -1.0125,-1.80984 -1.0125,-2.78437 0,-3.73926 4.47718,-5.28276 5.54692,-1.9123 l 0.59814,1.88458 0.69716,-1.88458 c 0.45314,-1.22497 1.37112,-1.86586 2.62278,-1.83109 1.90219,0.0528 1.89995,0.0646 -0.18375,0.97227 -1.94561,0.84745 -1.97836,0.94861 -0.42188,1.30293 0.92813,0.21128 2.10252,0.72002 2.60976,1.13051 0.59709,0.48321 1.26006,0.005 1.88035,-1.35642 1.40527,-3.08422 3.2774,-2.64672 3.68697,0.86162 0.3653,3.12907 -0.75267,5.99021 -1.56162,3.99654 -0.50652,-1.24831 -4.50608,-1.43554 -4.50608,-0.21094 0,1.35178 -3.21931,0.97211 -4.02927,-0.47519 -0.66935,-1.19608 -0.84007,-1.19608 -1.83274,0 -1.30971,1.57811 -2.71723,1.68345 -4.09424,0.30644 z m 3.06674,-3.31986 c -0.1553,-1.09768 -0.66206,-1.9209 -1.12612,-1.82939 -1.08206,0.21336 -1.55889,2.49301 -0.88744,4.24275 0.76244,1.98691 2.36448,0.0668 2.01356,-2.41336 z m 6.04576,1.32944 c 0,-0.66871 -0.56953,-1.21583 -1.26563,-1.21583 -1.27088,0 -1.73448,1.78115 -0.72606,2.78957 0.78742,0.78742 1.99169,-0.16413 1.99169,-1.57374 z m 5.0625,-0.84375 c 0,-0.72348 -0.37969,-1.08076 -0.84375,-0.79395 -0.46407,0.2868 -0.84375,0.87875 -0.84375,1.31542 0,0.43667 0.37968,0.79395 0.84375,0.79395 0.46406,0 0.84375,-0.59194 0.84375,-1.31542 z M 134.63106,260.23698 c -0.30065,-0.48645 0.4138,-4.67334 1.58766,-9.30418 2.66774,-10.52422 2.66992,-11.06704 0.0444,-11.06704 -2.56155,0 -4.20297,2.36187 -5.57061,8.01563 -1.16624,4.82114 -2.36902,6.76107 -3.49428,5.63581 -0.45594,-0.45594 -0.23229,-2.81514 0.55487,-5.85287 0.72528,-2.79896 1.3187,-5.69867 1.3187,-6.44379 0,-2.1328 -1.59866,-1.58063 -2.18477,0.7546 -0.29119,1.16015 -0.89354,2.10937 -1.33856,2.10937 -0.44905,0 -0.55014,-0.84485 -0.22714,-1.89844 1.21449,-3.96158 3.4111,-5.07038 5.63638,-2.84512 0.98777,0.98778 1.40194,0.98778 2.75278,0 1.95857,-1.43213 4.80986,-1.50164 6.16131,-0.15019 1.42889,1.4289 1.27073,3.90011 -0.78766,12.3071 -1.80154,7.35793 -3.3855,10.46647 -4.45304,8.73912 z m 247.08371,-3.01345 c -0.86979,-3.4655 0.30988,-5.68016 2.86751,-5.38338 2.42758,0.28167 3.16472,1.99865 2.31375,5.38922 -0.72072,2.87159 -4.46012,2.86737 -5.18126,-0.006 z m 3.71748,-2.28388 c -0.1553,-1.09768 -0.66206,-1.9209 -1.12612,-1.82939 -1.08206,0.21336 -1.55889,2.49301 -0.88744,4.24275 0.76244,1.98691 2.36448,0.0668 2.01356,-2.41336 z m 2.67076,3.48861 c 0,-0.46406 0.37968,-0.84375 0.84375,-0.84375 0.46406,0 0.84375,0.37969 0.84375,0.84375 0,0.46406 -0.37969,0.84375 -0.84375,0.84375 -0.46407,0 -0.84375,-0.37969 -0.84375,-0.84375 z m 4.00781,0.28495 c 1.2777,-0.51556 1.4233,-5.34745 0.16114,-5.34745 -0.49145,0 -0.65888,-0.37969 -0.37208,-0.84375 0.28681,-0.46406 1.06859,-0.84375 1.7373,-0.84375 0.84716,0 1.21583,0.98075 1.21583,3.23438 0,3.02078 0.16476,3.23437 2.49494,3.23437 2.93631,0 4.2617,-2.18559 1.72729,-2.84836 -0.93705,-0.24505 -1.69098,-1.15071 -1.69098,-2.03129 0,-1.19479 0.57575,-1.56482 2.32031,-1.49122 1.42754,0.0602 1.75218,0.24634 0.84375,0.48375 -1.75446,0.45848 -1.98483,1.94962 -0.30121,1.94962 1.62398,0 2.43455,2.49719 1.26714,3.90382 -0.62111,0.74839 -2.64298,1.13509 -5.70986,1.09206 -2.61155,-0.0366 -4.27365,-0.25812 -3.69357,-0.49218 z m 21.09375,0 c 1.2777,-0.51556 1.4233,-5.34745 0.16114,-5.34745 -0.49145,0 -0.65888,-0.37969 -0.37208,-0.84375 0.28681,-0.46406 1.06859,-0.84375 1.7373,-0.84375 0.85166,0 1.21583,0.98985 1.21583,3.30469 0,1.85427 0.46289,3.49147 1.05468,3.73026 0.58009,0.23406 -0.27421,0.42558 -1.89843,0.42558 -1.62422,0 -2.47852,-0.19152 -1.89844,-0.42558 z m 4.79145,-1.48968 c -0.86979,-3.4655 0.30988,-5.68016 2.86751,-5.38338 2.42758,0.28167 3.16472,1.99865 2.31375,5.38922 -0.72072,2.87159 -4.46012,2.86737 -5.18126,-0.006 z m 3.71748,-2.28388 c -0.1553,-1.09768 -0.66206,-1.9209 -1.12612,-1.82939 -1.08206,0.21336 -1.55889,2.49301 -0.88744,4.24275 0.76244,1.98691 2.36448,0.0668 2.01356,-2.41336 z m 3.30357,3.77356 c 1.2777,-0.51556 1.4233,-5.34745 0.16114,-5.34745 -0.49145,0 -0.65888,-0.37969 -0.37208,-0.84375 0.28681,-0.46406 1.06859,-0.84375 1.7373,-0.84375 0.85597,0 1.21583,0.99893 1.21583,3.375 0,3.74636 1.33148,4.41173 3.6661,1.83201 2.0823,-2.30093 1.84684,-4.61995 -0.39676,-3.90784 -1.20669,0.38298 -1.60433,0.26359 -1.21583,-0.36503 0.83405,-1.34951 4.43354,-1.14888 4.98094,0.27764 0.25575,0.66647 -0.2793,2.15801 -1.18902,3.31452 l -1.65402,2.10275 1.91211,0.36744 c 1.05166,0.2021 -0.74571,0.38918 -3.99415,0.41575 -3.24844,0.0266 -5.43164,-0.14323 -4.85156,-0.37729 z m 11.17969,-0.28495 c 0,-0.46406 0.37969,-0.84375 0.84375,-0.84375 0.46406,0 0.84375,0.37969 0.84375,0.84375 0,0.46406 -0.37969,0.84375 -0.84375,0.84375 -0.46406,0 -0.84375,-0.37969 -0.84375,-0.84375 z m 2.53125,-0.0569 c 0,-0.49774 0.71016,-0.6752 1.58758,-0.39673 1.02595,0.32563 1.7734,0.0196 2.11285,-0.86497 0.35504,-0.92523 -0.0228,-1.51216 -1.1657,-1.81105 -0.93705,-0.24503 -1.69098,-1.1507 -1.69098,-2.03128 0,-1.19479 0.57575,-1.56481 2.32031,-1.49122 1.42754,0.0602 1.75218,0.24634 0.84375,0.48375 -1.75446,0.45848 -1.98483,1.94962 -0.30121,1.94962 1.62398,0 2.43455,2.49719 1.26714,3.90383 -1.13226,1.3643 -4.97374,1.56361 -4.97374,0.25806 z m 7.38281,0.34183 c 1.2777,-0.51555 1.4233,-5.34744 0.16114,-5.34744 -0.49145,0 -0.65888,-0.37969 -0.37208,-0.84375 0.28681,-0.46406 1.06859,-0.84375 1.7373,-0.84375 0.85597,0 1.21583,0.99893 1.21583,3.375 0,3.74636 1.33148,4.41173 3.6661,1.83201 2.0823,-2.30092 1.84684,-4.61995 -0.39676,-3.90784 -1.20669,0.38298 -1.60433,0.26359 -1.21583,-0.36503 0.83405,-1.34951 4.43354,-1.14888 4.98094,0.27764 0.25575,0.66647 -0.2793,2.15801 -1.18902,3.31452 l -1.65402,2.10275 1.91211,0.36745 c 1.05166,0.20209 -0.74571,0.38917 -3.99415,0.41574 -3.24844,0.0265 -5.43164,-0.14322 -4.85156,-0.37729 z m 20.62969,-0.45368 c -2.37627,-2.37627 -0.65672,-6.88452 2.45792,-6.44413 1.49368,0.21119 2.0842,0.89735 2.28586,2.6561 0.44054,3.84202 -2.41198,6.11983 -4.74378,3.78803 z m 3.06674,-3.31986 c -0.1553,-1.09768 -0.66206,-1.9209 -1.12612,-1.82939 -1.08206,0.21336 -1.55889,2.49301 -0.88744,4.24275 0.76244,1.98691 2.36448,0.0668 2.01356,-2.41336 z m 2.67076,3.48861 c 0,-0.46406 0.37968,-0.84375 0.84375,-0.84375 0.46406,0 0.84375,0.37969 0.84375,0.84375 0,0.46406 -0.37969,0.84375 -0.84375,0.84375 -0.46407,0 -0.84375,-0.37969 -0.84375,-0.84375 z m 4.07167,-1.10907 c 2.45677,-2.61511 2.48062,-5.11594 0.0414,-4.34176 -1.20668,0.38298 -1.60434,0.26359 -1.21583,-0.36503 0.83405,-1.34951 4.43355,-1.14888 4.98094,0.27764 0.25576,0.66647 -0.2793,2.15801 -1.18902,3.31452 l -1.65402,2.10275 1.91211,0.36744 c 1.14069,0.21921 0.57627,0.41382 -1.39903,0.48236 l -3.31116,0.1149 1.83457,-1.95282 z m 6.05333,1.63399 c 0,-0.17536 0.5643,-1.66939 1.25399,-3.32007 1.25006,-2.99182 1.24675,-3.00237 -1.05468,-3.35673 -1.26978,-0.19552 1.58311,-0.37496 6.33975,-0.39878 8.20908,-0.0411 8.64844,0.0458 8.64844,1.7107 0,0.96468 -0.62837,2.44831 -1.3964,3.29697 -1.31855,1.45698 -1.27493,1.54299 0.78251,1.54299 1.3453,0 2.84355,-0.84494 3.91615,-2.20854 1.99569,-2.5371 1.56045,-4.01581 -0.94768,-3.21975 -1.14831,0.36445 -1.52979,0.23531 -1.14482,-0.38757 0.31753,-0.51377 1.50414,-0.93414 2.63691,-0.93414 2.48518,0 2.84176,2.7997 0.66318,5.20701 -1.31855,1.45698 -1.27493,1.54299 0.78251,1.54299 1.3453,0 2.84355,-0.84494 3.91615,-2.20854 1.81911,-2.31262 1.58354,-4.13423 -0.43448,-3.35984 -0.64916,0.24911 -1.18028,0.0851 -1.18028,-0.36435 0,-0.44949 0.94922,-0.81727 2.10937,-0.81727 1.65854,0 2.10938,0.42876 2.10938,2.00607 0,1.10332 -0.61993,2.52055 -1.37761,3.14938 -1.2472,1.03508 -1.18729,1.19664 0.6328,1.7067 1.10573,0.30987 -2.10496,0.60125 -7.13488,0.6475 l -9.14532,0.0842 2.23191,-2.65247 c 1.40792,-1.67323 1.93631,-2.94808 1.43121,-3.45317 -1.23942,-1.23942 -3.98256,0.63375 -5.18726,3.54214 -0.58401,1.40992 -1.39546,2.5635 -1.80322,2.5635 -1.0267,0 -0.88553,-0.90888 0.52424,-3.375 1.66346,-2.90993 1.56485,-3.375 -0.71561,-3.375 -1.49527,0 -2.35451,0.8278 -3.50314,3.375 -0.83705,1.85625 -1.84394,3.375 -2.23751,3.375 -0.39358,-2e-5 -0.71561,-0.14349 -0.71561,-0.31885 z m 216.4968,-0.4037 c -0.30065,-0.48645 0.4138,-4.67334 1.58766,-9.30418 2.66774,-10.52422 2.66992,-11.06704 0.0444,-11.06704 -2.56155,0 -4.20297,2.36187 -5.57061,8.01563 -1.16624,4.82114 -2.36902,6.76107 -3.49428,5.63581 -0.45594,-0.45594 -0.23229,-2.81514 0.55487,-5.85287 0.72528,-2.79896 1.3187,-5.69867 1.3187,-6.44379 0,-2.1328 -1.59866,-1.58063 -2.18478,0.7546 -0.29118,1.16015 -0.89353,2.10937 -1.33855,2.10937 -0.44905,0 -0.55014,-0.84485 -0.22714,-1.89844 1.21449,-3.96158 3.4111,-5.07038 5.63638,-2.84512 0.98776,0.98778 1.40194,0.98778 2.75278,0 1.95857,-1.43213 4.80986,-1.50164 6.16131,-0.15019 1.42889,1.4289 1.27073,3.90011 -0.78766,12.3071 -1.80154,7.35793 -3.3855,10.46647 -4.45304,8.73912 z M 257.02546,256.1002 c -0.2456,-0.39739 0.66151,-5.067 2.01578,-10.37691 1.35428,-5.30992 2.47064,-9.74933 2.4808,-9.86534 0.0101,-0.11601 -0.57347,-0.21094 -1.29695,-0.21094 -0.72349,0 -1.08076,-0.37969 -0.79396,-0.84375 0.28681,-0.46406 1.44828,-0.84375 2.58105,-0.84375 2.44556,0 2.55395,1.03668 0.79395,7.59375 -0.68507,2.55235 -1.2501,4.77488 -1.25561,4.93897 -0.006,0.1641 1.35573,-0.90079 3.02499,-2.36642 3.42708,-3.00902 5.69095,-3.07153 6.10383,-0.16855 0.21795,1.53247 -0.0606,1.89091 -1.26562,1.62877 -0.8498,-0.18486 -1.44076,-0.81639 -1.31324,-1.40341 0.27292,-1.25639 -1.09065,-0.59294 -3.80809,1.85288 l -1.88874,1.69994 1.88874,0.93597 c 1.257,0.6229 1.97718,1.84673 2.15314,3.6589 0.31449,3.2389 1.59889,3.57536 2.34225,0.61358 0.29118,-1.16016 0.89353,-2.10938 1.33856,-2.10938 1.1444,0 -0.0604,3.59332 -1.61572,4.81887 -1.97667,1.55758 -4.43886,-0.14575 -4.43886,-3.07078 0,-1.42043 -0.54844,-2.62174 -1.33464,-2.92344 -1.94211,-0.74526 -1.91534,-0.77094 -2.51226,2.41092 -0.56273,2.99957 -2.40337,5.31812 -3.1994,4.03012 z m 564.46875,-1.6875 c -0.2456,-0.39739 0.66151,-5.067 2.01578,-10.37691 1.35428,-5.30992 2.47064,-9.74933 2.4808,-9.86534 0.0102,-0.11601 -0.57347,-0.21094 -1.29695,-0.21094 -0.72349,0 -1.08076,-0.37969 -0.79396,-0.84375 0.28681,-0.46406 1.44828,-0.84375 2.58105,-0.84375 2.44556,0 2.55395,1.03668 0.79395,7.59375 -0.68507,2.55235 -1.2501,4.77488 -1.25561,4.93897 -0.006,0.1641 1.35573,-0.90079 3.02499,-2.36642 3.42708,-3.00902 5.69095,-3.07153 6.10383,-0.16855 0.21795,1.53247 -0.0606,1.89091 -1.26562,1.62877 -0.8498,-0.18486 -1.44076,-0.81639 -1.31324,-1.40341 0.27292,-1.25639 -1.09065,-0.59294 -3.80809,1.85288 l -1.88874,1.69994 1.88874,0.93597 c 1.257,0.6229 1.97718,1.84673 2.15314,3.6589 0.31449,3.2389 1.59889,3.57536 2.34225,0.61358 0.29118,-1.16016 0.89353,-2.10938 1.33856,-2.10938 1.1444,0 -0.0604,3.59332 -1.61571,4.81887 -1.97668,1.55758 -4.43887,-0.14575 -4.43887,-3.07078 0,-1.42043 -0.54844,-2.62174 -1.33464,-2.92344 -1.94211,-0.74526 -1.91534,-0.77094 -2.51226,2.41092 -0.56273,2.99957 -2.40337,5.31812 -3.1994,4.03012 z M 419.11082,241.83821 c 1.2777,-0.51556 1.4233,-5.34745 0.16114,-5.34745 -0.49145,0 -0.65888,-0.37969 -0.37208,-0.84375 0.28681,-0.46406 1.06859,-0.84375 1.7373,-0.84375 0.85597,0 1.21583,0.99893 1.21583,3.375 0,3.74636 1.33148,4.41173 3.6661,1.83201 2.0823,-2.30093 1.84684,-4.61995 -0.39676,-3.90784 -1.20669,0.38298 -1.60433,0.26359 -1.21583,-0.36503 0.78678,-1.27303 4.45435,-1.18433 4.98382,0.12055 0.31096,0.76637 0.61849,0.79532 1.12499,0.10588 0.38338,-0.52184 2.8517,-0.96502 5.48515,-0.98484 5.5109,-0.0414 6.56541,1.10248 4.01046,4.35057 l -1.65402,2.10275 1.91211,0.36744 c 1.14069,0.21921 0.57627,0.41382 -1.39903,0.48236 l -3.31115,0.1149 1.83458,-1.95282 c 2.18368,-2.32442 2.50974,-5.23681 0.49994,-4.46557 -0.73404,0.28168 -1.49341,0.51214 -1.6875,0.51214 -0.19407,0 -0.35286,0.72833 -0.35286,1.61849 0,2.90597 -0.98758,4.28776 -3.06449,4.28776 -1.58654,0 -2.15145,-0.55628 -2.54055,-2.50175 l -0.50036,-2.50177 -1.52337,1.86895 c -1.48282,1.8192 -1.47456,1.88355 0.31051,2.41765 1.00864,0.3018 -0.82393,0.55659 -4.07237,0.5662 -3.24843,0.01 -5.43164,-0.17402 -4.85156,-0.40808 z m 14.41518,-3.77356 c -0.1553,-1.09768 -0.66206,-1.9209 -1.12612,-1.82939 -1.08206,0.21336 -1.55889,2.49301 -0.88744,4.24275 0.76244,1.98691 2.36448,0.0668 2.01356,-2.41336 z m 8.57701,3.48861 c 0,-0.46406 0.37969,-0.84375 0.84375,-0.84375 0.46406,0 0.84375,0.37969 0.84375,0.84375 0,0.46406 -0.37969,0.84375 -0.84375,0.84375 -0.46406,0 -0.84375,-0.37969 -0.84375,-0.84375 z m 3.79687,0.2264 c 2.58504,-0.64585 3.18201,-2.26715 1.0294,-2.79568 -1.1394,-0.27977 -1.87315,-1.10604 -1.87315,-2.10938 0,-2.18811 3.5545,-2.72534 4.99525,-0.75499 0.97278,1.33035 1.10587,1.336 1.59257,0.0677 0.33373,-0.86969 1.4032,-1.3413 2.8779,-1.2691 1.98969,0.0974 2.05792,0.17054 0.44834,0.48056 -2.37999,0.4584 -2.45446,1.59357 -0.14418,2.19773 1.26101,0.32976 1.67617,1.00981 1.47656,2.41871 -0.34945,2.46655 -3.74653,3.15299 -5.27294,1.0655 -0.97277,-1.33034 -1.10587,-1.336 -1.59257,-0.0677 -0.33116,0.86299 -1.41455,1.34716 -2.87789,1.28613 -1.78133,-0.0743 -1.94019,-0.19947 -0.65929,-0.51948 z m 8.47443,-2.6979 c -0.8296,-1.34232 -2.16581,-0.24861 -1.57554,1.28961 0.32464,0.846 0.78391,1.00847 1.32401,0.46837 0.45482,-0.45482 0.56801,-1.24591 0.25153,-1.75798 z m -5.68302,-1.81053 c -0.16629,-0.49887 -0.66305,-0.90703 -1.10391,-0.90703 -0.44085,0 -0.93762,0.40816 -1.1039,0.90703 -0.16629,0.49886 0.33046,0.90703 1.1039,0.90703 0.77344,0 1.2702,-0.40817 1.10391,-0.90703 z m 17.39848,3.0773 c -0.86979,-3.4655 0.30988,-5.68016 2.86751,-5.38338 2.42758,0.28167 3.16472,1.99865 2.31375,5.38922 -0.72072,2.87159 -4.46012,2.86737 -5.18126,-0.006 z m 3.71748,-2.28388 c -0.1553,-1.09768 -0.66206,-1.9209 -1.12612,-1.82939 -1.08206,0.21336 -1.55889,2.49301 -0.88744,4.24275 0.76244,1.98691 2.36448,0.0668 2.01356,-2.41336 z m 2.67076,3.48861 c 0,-0.46406 0.37968,-0.84375 0.84375,-0.84375 0.46406,0 0.84375,0.37969 0.84375,0.84375 0,0.46406 -0.37969,0.84375 -0.84375,0.84375 -0.46407,0 -0.84375,-0.37969 -0.84375,-0.84375 z m 4.07167,-1.10907 c 2.45677,-2.61511 2.48062,-5.11594 0.0414,-4.34176 -1.20668,0.38298 -1.60434,0.26359 -1.21583,-0.36503 0.83405,-1.34951 4.43355,-1.14888 4.98094,0.27764 0.25576,0.66647 -0.2793,2.15801 -1.18902,3.31452 l -1.65402,2.10275 1.91211,0.36744 c 1.14069,0.21921 0.57627,0.41382 -1.39903,0.48236 l -3.31116,0.1149 1.83457,-1.95282 z m 6.05333,1.63399 c 0,-0.17536 0.5643,-1.66939 1.25399,-3.32007 1.25019,-2.99211 1.24697,-3.00232 -1.05468,-3.35163 -1.84296,-0.27969 -1.6704,-0.37588 0.85537,-0.47679 1.74024,-0.0695 3.16407,0.24038 3.16407,0.68869 0,1.39205 -2.8061,6.77863 -3.53127,6.77863 -0.37813,0 -0.68748,-0.14347 -0.68748,-0.31883 z m 4.58495,-1.71195 c -0.76444,-3.04579 0.94648,-5.58475 3.6713,-5.44806 1.989,0.0998 2.04064,0.16305 0.39219,0.48055 -1.04414,0.20111 -1.89844,0.67466 -1.89844,1.05232 0,0.37766 0.8543,0.91891 1.89844,1.20277 1.34229,0.3649 2.23755,0.0229 3.05603,-1.16722 1.73357,-2.52087 3.48303,-2.10988 3.48303,0.81824 0,2.19331 1.80985,4.24843 3.74141,4.24843 1.19274,0 0.31651,-2.44954 -0.99922,-2.79337 -1.40626,-0.3675 -1.40626,-0.39054 0,-0.48375 0.81211,-0.0538 1.47656,-0.70802 1.47656,-1.45377 0,-0.85859 -0.4642,-1.17777 -1.26563,-0.87023 -0.69609,0.26711 -1.26562,0.0915 -1.26562,-0.39029 0,-0.48177 0.8543,-0.75462 1.89844,-0.60633 1.3007,0.18473 1.90642,0.8532 1.92378,2.12309 0.014,1.0194 0.27253,2.10066 0.57467,2.4028 0.30213,0.30213 0.34504,1.08174 0.0953,1.73247 -0.5388,1.40412 -4.14426,1.58497 -4.96976,0.2493 -0.40333,-0.6526 -0.81883,-0.58907 -1.37966,0.21094 -0.62392,0.89002 -0.89775,0.91007 -1.23046,0.0901 -0.51099,-1.25932 -3.34578,-1.40573 -4.08421,-0.21094 -0.2868,0.46406 -1.44104,0.84375 -2.56496,0.84375 -1.45499,0 -2.1903,-0.58487 -2.55321,-2.03078 z m 3.4676,-1.28447 c -0.8296,-1.34232 -2.16581,-0.24861 -1.57554,1.28961 0.32464,0.846 0.78391,1.00847 1.32401,0.46837 0.45482,-0.45482 0.56801,-1.24591 0.25153,-1.75798 z m 5.44745,-0.53142 c 0,-0.72348 -0.37969,-1.08076 -0.84375,-0.79395 -0.46407,0.28681 -0.84375,0.87875 -0.84375,1.31542 0,0.43667 0.37968,0.79395 0.84375,0.79395 0.46406,0 0.84375,-0.59194 0.84375,-1.31542 z m 8.4375,2.94606 c 0,-0.49774 0.71016,-0.67521 1.58758,-0.39673 1.02595,0.32563 1.7734,0.0196 2.11285,-0.86497 0.35504,-0.92523 -0.0228,-1.51216 -1.1657,-1.81105 -0.93705,-0.24505 -1.69098,-1.15071 -1.69098,-2.03129 0,-1.19479 0.57575,-1.56482 2.32031,-1.49122 1.42754,0.0602 1.75218,0.24634 0.84375,0.48375 -1.75446,0.45848 -1.98483,1.94962 -0.30121,1.94962 1.62398,0 2.43455,2.49719 1.26714,3.90382 -1.13226,1.36431 -4.97374,1.56362 -4.97374,0.25807 z m 1.6875,-103.56769 c -7.03806,-1.83963 -12.15183,-4.86852 -17.03668,-10.09082 -6.15774,-6.58311 -9.96332,-15.90868 -9.96332,-24.41502 l 0,-3.619607 13.05164,0 c 11.25481,0 12.98479,-0.17423 12.56598,-1.26563 -0.40162,-1.0466 -2.66024,-1.26562 -13.05164,-1.26562 l -12.56598,0 0,-3.619602 c 0,-4.535163 1.9712,-12.224844 4.30791,-16.80516 2.4835,-4.868064 9.23828,-11.7792 14.09768,-14.42403 12.33568,-6.71391 33.97867,-6.495444 45.85208,0.462834 4.59386,2.692179 10.93232,9.36297 13.29264,13.989555 2.10583,4.127778 4.26355,12.813309 4.28096,17.232345 l 0.0125,3.164058 -13.07812,0 c -8.15625,0 -13.07813,0.31755 -13.07813,0.84375 0,0.52621 4.92188,0.84375 13.07813,0.84375 l 13.07812,0 0,2.798157 c 0,13.70317 -8.05635,27.69281 -19.23066,33.39352 -8.45304,4.31242 -24.84874,5.59115 -35.61309,2.77752 z m 20.89052,-21.24589 c 1.51245,-0.92215 3.47762,-2.87326 4.36705,-4.33583 1.55762,-2.5613 3.19808,-10.52557 2.34396,-11.37969 -0.22848,-0.22849 -3.48749,1.9372 -7.24224,4.81264 l -6.82679,5.22806 -6.76625,-5.23431 -6.76625,-5.23432 0,2.88104 c 0,8.82273 5.69987,14.93904 13.92187,14.93904 2.72456,0 5.19271,-0.59383 6.96865,-1.67663 z m -2.07575,-14.60279 4.67407,-3.629487 -4.65436,-3.60127 c -2.74879,-2.12685 -5.17456,-3.401637 -5.92496,-3.113682 -0.69884,0.268164 -3.06261,1.901205 -5.25284,3.628972 l -3.98224,3.14139 4.63838,3.601777 c 2.55111,1.98098 4.90603,3.60178 5.23314,3.60178 0.32711,0 2.69807,-1.63327 5.26881,-3.62948 z m -4.32232,-15.266386 c 0.61431,0.377784 3.77473,2.742327 7.02317,5.254524 5.82032,4.501165 5.91005,4.536365 6.16703,2.418795 0.37496,-3.089745 -1.2373,-8.432334 -3.35842,-11.128914 -3.80016,-4.83111 -12.48796,-6.180633 -17.6604,-2.743281 -3.51542,2.336175 -6.66383,8.313066 -6.66383,12.650481 l 0,3.229424 6.68776,-5.183963 c 4.46034,-3.457377 7.05977,-4.955184 7.80469,-4.497066 z m 68.33484,51.351646 c -2.93952,-0.63804 -6.98929,-2.12392 -8.99948,-3.30198 -7.04437,-4.12827 -12.44077,-12.74312 -13.19901,-21.07101 -0.26922,-2.9569 -0.0703,-3.36495 1.90143,-3.9005 1.21116,-0.32896 6.88941,-0.74011 12.61835,-0.91364 l 10.41624,-0.31552 1.12914,3.96355 c 1.61964,5.68539 4.96758,8.27082 10.71011,8.27082 5.51161,0 8.90843,-2.25208 8.90843,-5.90625 0,-3.57389 -2.88263,-5.30892 -13.21727,-7.95535 -21.27295,-5.44748 -29.83236,-13.00427 -29.80574,-26.314406 0.0156,-7.798284 5.2606,-15.531012 13.32503,-19.645182 5.16959,-2.637324 12.76202,-3.701493 23.55592,-3.301632 8.6575,0.320715 10.62517,0.678294 15.2615,2.773404 6.27281,2.834622 11.22478,7.990227 13.17656,13.718403 1.41469,4.151862 1.73954,8.321157 0.69619,8.934948 -0.34805,0.20475 -5.81936,0.643914 -12.15846,0.975915 l -11.52564,0.603648 -1.68406,-3.807081 c -2.01762,-4.561173 -3.77833,-5.638914 -9.21232,-5.638914 -4.32335,0 -6.13046,1.038879 -6.13046,3.524301 0,2.17737 2.95148,3.716964 10.125,5.281533 24.66601,5.37975 33.72097,12.886726 33.74175,27.973463 0.0181,13.09922 -9.08393,23.3459 -23.44735,26.39618 -5.97685,1.26927 -19.57476,1.09026 -26.18586,-0.3447 z m -354.96364,-0.58214 c -0.22706,-0.59222 -0.31388,-18.54239 -0.19293,-39.889267 l 0.2199,-38.812495 21.9375,-0.245259 c 31.61115,-0.353403 37.87,0.791244 44.50922,8.140068 3.62259,4.00977 4.83909,7.868043 4.84545,15.367959 0.004,4.382559 -0.48139,6.502509 -2.31561,10.119204 -2.08989,4.120853 -7.27371,9.19104 -10.49477,10.26473 -0.71231,0.23743 0.29974,1.91929 2.88561,4.79539 5.24029,5.82846 17.39956,29.47334 15.70785,30.54542 -1.38692,0.87894 -26.92815,0.97051 -28.20298,0.10113 -0.49994,-0.34094 -3.91712,-6.2609 -7.59375,-13.15546 -7.15054,-13.40901 -10.12181,-17.41756 -12.9105,-17.41756 -1.70086,0 -1.75851,0.4479 -1.9818,15.39844 l -0.22997,15.39844 -12.8852,0.23301 c -9.84346,0.178 -12.98264,-0.0212 -13.29802,-0.84375 z m 42.24388,-49.955942 c 2.48387,-1.627497 2.8344,-5.841801 0.68357,-8.21844 -1.1523,-1.273284 -2.70092,-1.543005 -8.85937,-1.543005 l -7.46298,0 0,6.026823 0,6.026814 6.77941,-0.46467 c 4.11299,-0.281916 7.59748,-1.000692 8.85937,-1.827522 z m 40.43515,49.933862 c -0.22241,-0.58008 -0.30541,-18.52031 -0.18446,-39.867187 l 0.2199,-38.812495 13.07813,0 13.07812,0 0.22772,17.929692 0.22772,17.929683 2.0926,0 c 1.97589,0 2.09259,-0.26076 2.09259,-4.676112 l 0,-4.676121 6.53906,0.246429 c 5.14048,0.193725 6.53906,0.517131 6.53906,1.512054 0,0.948924 -1.21403,1.328949 -4.85156,1.518669 l -4.85156,0.253044 0,7.509537 0,7.509537 4.85156,0.25305 c 3.63753,0.18972 4.85156,0.56974 4.85156,1.51866 0,0.99494 -1.39858,1.31834 -6.53906,1.51206 l -6.53906,0.24643 0,-4.67612 c 0,-4.425347 -0.11311,-4.676117 -2.10938,-4.676117 l -2.10937,0 0,19.237497 c 0,13.8375 -0.28421,19.52171 -1.0125,20.25 -1.45863,1.45863 -25.04057,1.41977 -25.60107,-0.0422 z m 49.13467,0.5133 c -0.32097,-0.32099 -0.5836,-9.44298 -0.5836,-20.27111 l 0,-19.687497 -4.11328,0 c -3.89532,0 -4.14011,0.13414 -4.61954,2.531247 -0.29692,1.48463 -1.03828,2.53125 -1.79296,2.53125 -1.0459,0 -1.28672,-1.26331 -1.28672,-6.749997 0,-5.486679 0.24082,-6.75 1.28672,-6.75 0.75468,0 1.49604,1.046619 1.79296,2.53125 0.47909,2.39542 0.72608,2.53125 4.60275,2.53125 l 4.09651,0 0.22771,-17.929683 0.22772,-17.929692 13.07813,0 13.07812,0 0,39.656245 0,39.656257 -12.70546,0.23204 c -6.988,0.12762 -12.96808,-0.0305 -13.28906,-0.35156 z m 39.6448,-0.0114 c -0.31468,-0.31466 -0.57215,-9.62134 -0.57215,-20.68151 l 0,-20.109377 7.5459,0 c 6.64852,0 7.68986,-0.2055 8.75632,-1.72809 1.1794,-1.683814 1.28232,-1.63732 4.01593,1.81416 l 2.80553,3.542267 3.0564,-3.548747 3.05641,-3.548743 2.37151,3.422083 c 1.30432,1.88214 2.67492,3.422067 3.04578,3.422067 0.37085,0 1.74305,-1.515437 3.04931,-3.367647 l 2.37503,-3.367666 3.12353,3.578596 3.12353,3.578597 1.35401,-1.898427 c 1.22098,-1.71195 2.05383,-1.89845 8.47803,-1.89845 l 7.12403,0 0,4.218747 0,4.21876 -18.14063,0 -18.14062,0 0,5.89097 0,5.89098 20.03906,0.22622 20.03906,0.2262 0,10.125 0,10.125 -32.96691,0.2206 c -18.13179,0.12132 -33.22437,-0.0369 -33.53906,-0.35157 z m 20.08127,-43.261487 c -1.38204,-1.867683 -2.73872,-3.404757 -3.01484,-3.415719 -0.27612,-0.01098 -1.18926,0.739449 -2.02921,1.667574 -1.2953,1.431295 -2.59872,1.687495 -8.58505,1.687495 l -7.05788,0 0.22771,-17.929678 0.22772,-17.929692 32.42829,-0.221103 c 25.38238,-0.17307 32.57518,0.01026 33.10428,0.84375 1.10235,1.736541 0.84099,17.041293 -0.31069,18.192978 -0.72696,0.726966 -6.31875,1.0125 -19.82813,1.0125 l -18.81562,0 0,4.21875 0,4.21875 18.14062,0 18.14063,0 0,3.796875 0,3.79687 -7.49084,0 c -6.69224,0 -7.61724,0.19039 -8.67654,1.78577 -1.1625,1.75083 -1.23276,1.71783 -3.59265,-1.6875 -1.32384,-1.910298 -2.6401,-3.473274 -2.92503,-3.473301 -0.28494,-1.8e-5 -1.74041,1.423809 -3.23438,3.164071 l -2.71632,3.16409 -2.89806,-3.375 -2.89807,-3.375 -1.97937,2.480535 c -1.08866,1.364295 -2.36736,2.996285 -2.84157,3.626655 -0.67991,0.90381 -1.39348,0.42817 -3.375,-2.24965 z"
     id="path5730"
     inkscape:connector-curvature="0" />
  <text
     xml:space="preserve"
     style="font-style:normal;font-variant:normal;font-weight:normal;font-stretch:normal;font-size:25px;line-height:100%;font-family:sans-serif;-inkscape-font-specification:'sans-serif, Normal';text-align:start;letter-spacing:0px;word-spacing:0px;writing-mode:lr-tb;text-anchor:start;fill:#000000;fill-opacity:1;stroke:none;stroke-width:1px;stroke-linecap:butt;stroke-linejoin:miter;stroke-opacity:1"
     x="76.235367"
     y="380.79541"
     id="text5732"
     sodipodi:linespacing="100%"><tspan
       sodipodi:role="line"
       id="tspan5734"
       x="76.235367"
       y="380.79541">RheoModelClass</tspan></text>
  <text
     xml:space="preserve"
     style="font-style:normal;font-variant:normal;font-weight:normal;font-stretch:normal;font-size:25px;line-height:100%;font-family:sans-serif;-inkscape-font-specification:'sans-serif, Normal';text-align:start;letter-spacing:0px;word-spacing:0px;writing-mode:lr-tb;text-anchor:start;fill:#000000;fill-opacity:1;stroke:none;stroke-width:1px;stroke-linecap:butt;stroke-linejoin:miter;stroke-opacity:1"
     x="342.04382"
     y="380.46155"
     id="text5736"
     sodipodi:linespacing="100%"><tspan
       sodipodi:role="line"
       id="tspan5738"
       x="342.04382"
       y="380.46155">RheoTimeData</tspan></text>
  <text
     xml:space="preserve"
     style="font-style:normal;font-variant:normal;font-weight:normal;font-stretch:normal;font-size:25px;line-height:100%;font-family:sans-serif;-inkscape-font-specification:'sans-serif, Normal';text-align:start;letter-spacing:0px;word-spacing:0px;writing-mode:lr-tb;text-anchor:start;fill:#000000;fill-opacity:1;stroke:none;stroke-width:1px;stroke-linecap:butt;stroke-linejoin:miter;stroke-opacity:1"
     x="649.52045"
     y="379.69339"
     id="text5740"
     sodipodi:linespacing="100%"><tspan
       sodipodi:role="line"
       id="tspan5742"
       x="649.52045"
       y="379.69339">RheoModel</tspan></text>
  <path
     style="fill:none;fill-rule:evenodd;stroke:#649600;stroke-width:2.8;stroke-linecap:butt;stroke-linejoin:miter;stroke-opacity:1;stroke-miterlimit:4;stroke-dasharray:none;marker-end:url(#marker6084)"
     d="m 158.02624,214.46565 0,-48.91288 124.91598,0 0,-18.06014"
     id="path5744"
     inkscape:connector-curvature="0" />
  <path
     style="fill:none;fill-rule:evenodd;stroke:#649600;stroke-width:2.8;stroke-linecap:butt;stroke-linejoin:miter;stroke-opacity:1;marker-end:url(#Arrow1Mend);stroke-miterlimit:4;stroke-dasharray:none"
     d="m 374.74794,205.05933 0,-7.90131 116.63841,0 0,9.03007 0,-9.06958 -59.58556,0 0,10.64204 0,-57.86609"
     id="path6292"
     inkscape:connector-curvature="0" />
  <path
     style="fill:none;fill-rule:evenodd;stroke:#649600;stroke-width:2.8;stroke-linecap:butt;stroke-linejoin:miter;stroke-opacity:1;stroke-miterlimit:4;stroke-dasharray:none;marker-end:url(#marker6376)"
     d="m 603.50973,149.75015 0,12.7926 130.18352,0 0,43.64534"
     id="path6374"
     inkscape:connector-curvature="0" />
  <path
     style="fill:none;fill-rule:evenodd;stroke:#c80000;stroke-width:2.8;stroke-linecap:butt;stroke-linejoin:miter;stroke-opacity:1;stroke-miterlimit:4;stroke-dasharray:none;marker-end:url(#marker6518)"
     d="m 709.61306,212.96064 0,-36.12028 -123.41097,0 0,-26.33771"
     id="path6458"
     inkscape:connector-curvature="0" />
  <path
     style="fill:none;fill-rule:evenodd;stroke:#aa0000;stroke-width:2.66850591;stroke-linecap:butt;stroke-linejoin:miter;stroke-miterlimit:4;stroke-dasharray:none;stroke-dashoffset:0;stroke-opacity:1;marker-end:url(#marker6728)"
     d="m 382.22495,204.76344 0,-14.19918 115.11474,0 0,15.46696 0,-15.46696 -47.92221,0 0,-41.58329"
     id="path6636"
     inkscape:connector-curvature="0" />
</svg>
