<?xml version="1.0" encoding="utf-8" standalone="no"?>
<!DOCTYPE svg PUBLIC "-//W3C//DTD SVG 1.1//EN"
  "http://www.w3.org/Graphics/SVG/1.1/DTD/svg11.dtd">
<!-- Created with matplotlib (https://matplotlib.org/) -->
<svg height="345.6pt" version="1.1" viewBox="0 0 460.8 345.6" width="460.8pt" xmlns="http://www.w3.org/2000/svg" xmlns:xlink="http://www.w3.org/1999/xlink">
 <defs>
  <style type="text/css">
*{stroke-linecap:butt;stroke-linejoin:round;}
  </style>
 </defs>
 <g id="figure_1">
  <g id="patch_1">
   <path d="M 0 345.6 
L 460.8 345.6 
L 460.8 0 
L 0 0 
z
" style="fill:#ffffff;"/>
  </g>
  <g id="axes_1">
   <g id="patch_2">
    <path d="M 57.6 307.584 
L 414.72 307.584 
L 414.72 41.472 
L 57.6 41.472 
z
" style="fill:#ffffff;"/>
   </g>
   <g id="matplotlib.axis_1">
    <g id="xtick_1">
     <g id="line2d_1">
      <defs>
       <path d="M 0 0 
L 0 3.5 
" id="m4fe1902d86" style="stroke:#000000;stroke-width:0.8;"/>
      </defs>
      <g>
       <use style="stroke:#000000;stroke-width:0.8;" x="73.832727" xlink:href="#m4fe1902d86" y="307.584"/>
      </g>
     </g>
     <g id="text_1">
      <!-- 0 -->
      <defs>
       <path d="M 31.78125 66.40625 
Q 24.171875 66.40625 20.328125 58.90625 
Q 16.5 51.421875 16.5 36.375 
Q 16.5 21.390625 20.328125 13.890625 
Q 24.171875 6.390625 31.78125 6.390625 
Q 39.453125 6.390625 43.28125 13.890625 
Q 47.125 21.390625 47.125 36.375 
Q 47.125 51.421875 43.28125 58.90625 
Q 39.453125 66.40625 31.78125 66.40625 
z
M 31.78125 74.21875 
Q 44.046875 74.21875 50.515625 64.515625 
Q 56.984375 54.828125 56.984375 36.375 
Q 56.984375 17.96875 50.515625 8.265625 
Q 44.046875 -1.421875 31.78125 -1.421875 
Q 19.53125 -1.421875 13.0625 8.265625 
Q 6.59375 17.96875 6.59375 36.375 
Q 6.59375 54.828125 13.0625 64.515625 
Q 19.53125 74.21875 31.78125 74.21875 
z
" id="DejaVuSans-48"/>
      </defs>
      <g transform="translate(70.651477 322.182437)scale(0.1 -0.1)">
       <use xlink:href="#DejaVuSans-48"/>
      </g>
     </g>
    </g>
    <g id="xtick_2">
     <g id="line2d_2">
      <g>
       <use style="stroke:#000000;stroke-width:0.8;" x="138.763636" xlink:href="#m4fe1902d86" y="307.584"/>
      </g>
     </g>
     <g id="text_2">
      <!-- 2 -->
      <defs>
       <path d="M 19.1875 8.296875 
L 53.609375 8.296875 
L 53.609375 0 
L 7.328125 0 
L 7.328125 8.296875 
Q 12.9375 14.109375 22.625 23.890625 
Q 32.328125 33.6875 34.8125 36.53125 
Q 39.546875 41.84375 41.421875 45.53125 
Q 43.3125 49.21875 43.3125 52.78125 
Q 43.3125 58.59375 39.234375 62.25 
Q 35.15625 65.921875 28.609375 65.921875 
Q 23.96875 65.921875 18.8125 64.3125 
Q 13.671875 62.703125 7.8125 59.421875 
L 7.8125 69.390625 
Q 13.765625 71.78125 18.9375 73 
Q 24.125 74.21875 28.421875 74.21875 
Q 39.75 74.21875 46.484375 68.546875 
Q 53.21875 62.890625 53.21875 53.421875 
Q 53.21875 48.921875 51.53125 44.890625 
Q 49.859375 40.875 45.40625 35.40625 
Q 44.1875 33.984375 37.640625 27.21875 
Q 31.109375 20.453125 19.1875 8.296875 
z
" id="DejaVuSans-50"/>
      </defs>
      <g transform="translate(135.582386 322.182437)scale(0.1 -0.1)">
       <use xlink:href="#DejaVuSans-50"/>
      </g>
     </g>
    </g>
    <g id="xtick_3">
     <g id="line2d_3">
      <g>
       <use style="stroke:#000000;stroke-width:0.8;" x="203.694545" xlink:href="#m4fe1902d86" y="307.584"/>
      </g>
     </g>
     <g id="text_3">
      <!-- 4 -->
      <defs>
       <path d="M 37.796875 64.3125 
L 12.890625 25.390625 
L 37.796875 25.390625 
z
M 35.203125 72.90625 
L 47.609375 72.90625 
L 47.609375 25.390625 
L 58.015625 25.390625 
L 58.015625 17.1875 
L 47.609375 17.1875 
L 47.609375 0 
L 37.796875 0 
L 37.796875 17.1875 
L 4.890625 17.1875 
L 4.890625 26.703125 
z
" id="DejaVuSans-52"/>
      </defs>
      <g transform="translate(200.513295 322.182437)scale(0.1 -0.1)">
       <use xlink:href="#DejaVuSans-52"/>
      </g>
     </g>
    </g>
    <g id="xtick_4">
     <g id="line2d_4">
      <g>
       <use style="stroke:#000000;stroke-width:0.8;" x="268.625455" xlink:href="#m4fe1902d86" y="307.584"/>
      </g>
     </g>
     <g id="text_4">
      <!-- 6 -->
      <defs>
       <path d="M 33.015625 40.375 
Q 26.375 40.375 22.484375 35.828125 
Q 18.609375 31.296875 18.609375 23.390625 
Q 18.609375 15.53125 22.484375 10.953125 
Q 26.375 6.390625 33.015625 6.390625 
Q 39.65625 6.390625 43.53125 10.953125 
Q 47.40625 15.53125 47.40625 23.390625 
Q 47.40625 31.296875 43.53125 35.828125 
Q 39.65625 40.375 33.015625 40.375 
z
M 52.59375 71.296875 
L 52.59375 62.3125 
Q 48.875 64.0625 45.09375 64.984375 
Q 41.3125 65.921875 37.59375 65.921875 
Q 27.828125 65.921875 22.671875 59.328125 
Q 17.53125 52.734375 16.796875 39.40625 
Q 19.671875 43.65625 24.015625 45.921875 
Q 28.375 48.1875 33.59375 48.1875 
Q 44.578125 48.1875 50.953125 41.515625 
Q 57.328125 34.859375 57.328125 23.390625 
Q 57.328125 12.15625 50.6875 5.359375 
Q 44.046875 -1.421875 33.015625 -1.421875 
Q 20.359375 -1.421875 13.671875 8.265625 
Q 6.984375 17.96875 6.984375 36.375 
Q 6.984375 53.65625 15.1875 63.9375 
Q 23.390625 74.21875 37.203125 74.21875 
Q 40.921875 74.21875 44.703125 73.484375 
Q 48.484375 72.75 52.59375 71.296875 
z
" id="DejaVuSans-54"/>
      </defs>
      <g transform="translate(265.444205 322.182437)scale(0.1 -0.1)">
       <use xlink:href="#DejaVuSans-54"/>
      </g>
     </g>
    </g>
    <g id="xtick_5">
     <g id="line2d_5">
      <g>
       <use style="stroke:#000000;stroke-width:0.8;" x="333.556364" xlink:href="#m4fe1902d86" y="307.584"/>
      </g>
     </g>
     <g id="text_5">
      <!-- 8 -->
      <defs>
       <path d="M 31.78125 34.625 
Q 24.75 34.625 20.71875 30.859375 
Q 16.703125 27.09375 16.703125 20.515625 
Q 16.703125 13.921875 20.71875 10.15625 
Q 24.75 6.390625 31.78125 6.390625 
Q 38.8125 6.390625 42.859375 10.171875 
Q 46.921875 13.96875 46.921875 20.515625 
Q 46.921875 27.09375 42.890625 30.859375 
Q 38.875 34.625 31.78125 34.625 
z
M 21.921875 38.8125 
Q 15.578125 40.375 12.03125 44.71875 
Q 8.5 49.078125 8.5 55.328125 
Q 8.5 64.0625 14.71875 69.140625 
Q 20.953125 74.21875 31.78125 74.21875 
Q 42.671875 74.21875 48.875 69.140625 
Q 55.078125 64.0625 55.078125 55.328125 
Q 55.078125 49.078125 51.53125 44.71875 
Q 48 40.375 41.703125 38.8125 
Q 48.828125 37.15625 52.796875 32.3125 
Q 56.78125 27.484375 56.78125 20.515625 
Q 56.78125 9.90625 50.3125 4.234375 
Q 43.84375 -1.421875 31.78125 -1.421875 
Q 19.734375 -1.421875 13.25 4.234375 
Q 6.78125 9.90625 6.78125 20.515625 
Q 6.78125 27.484375 10.78125 32.3125 
Q 14.796875 37.15625 21.921875 38.8125 
z
M 18.3125 54.390625 
Q 18.3125 48.734375 21.84375 45.5625 
Q 25.390625 42.390625 31.78125 42.390625 
Q 38.140625 42.390625 41.71875 45.5625 
Q 45.3125 48.734375 45.3125 54.390625 
Q 45.3125 60.0625 41.71875 63.234375 
Q 38.140625 66.40625 31.78125 66.40625 
Q 25.390625 66.40625 21.84375 63.234375 
Q 18.3125 60.0625 18.3125 54.390625 
z
" id="DejaVuSans-56"/>
      </defs>
      <g transform="translate(330.375114 322.182437)scale(0.1 -0.1)">
       <use xlink:href="#DejaVuSans-56"/>
      </g>
     </g>
    </g>
    <g id="xtick_6">
     <g id="line2d_6">
      <g>
       <use style="stroke:#000000;stroke-width:0.8;" x="398.487273" xlink:href="#m4fe1902d86" y="307.584"/>
      </g>
     </g>
     <g id="text_6">
      <!-- 10 -->
      <defs>
       <path d="M 12.40625 8.296875 
L 28.515625 8.296875 
L 28.515625 63.921875 
L 10.984375 60.40625 
L 10.984375 69.390625 
L 28.421875 72.90625 
L 38.28125 72.90625 
L 38.28125 8.296875 
L 54.390625 8.296875 
L 54.390625 0 
L 12.40625 0 
z
" id="DejaVuSans-49"/>
      </defs>
      <g transform="translate(392.124773 322.182437)scale(0.1 -0.1)">
       <use xlink:href="#DejaVuSans-49"/>
       <use x="63.623047" xlink:href="#DejaVuSans-48"/>
      </g>
     </g>
    </g>
    <g id="text_7">
     <!-- Time (s) -->
     <defs>
      <path d="M -0.296875 72.90625 
L 61.375 72.90625 
L 61.375 64.59375 
L 35.5 64.59375 
L 35.5 0 
L 25.59375 0 
L 25.59375 64.59375 
L -0.296875 64.59375 
z
" id="DejaVuSans-84"/>
      <path d="M 9.421875 54.6875 
L 18.40625 54.6875 
L 18.40625 0 
L 9.421875 0 
z
M 9.421875 75.984375 
L 18.40625 75.984375 
L 18.40625 64.59375 
L 9.421875 64.59375 
z
" id="DejaVuSans-105"/>
      <path d="M 52 44.1875 
Q 55.375 50.25 60.0625 53.125 
Q 64.75 56 71.09375 56 
Q 79.640625 56 84.28125 50.015625 
Q 88.921875 44.046875 88.921875 33.015625 
L 88.921875 0 
L 79.890625 0 
L 79.890625 32.71875 
Q 79.890625 40.578125 77.09375 44.375 
Q 74.3125 48.1875 68.609375 48.1875 
Q 61.625 48.1875 57.5625 43.546875 
Q 53.515625 38.921875 53.515625 30.90625 
L 53.515625 0 
L 44.484375 0 
L 44.484375 32.71875 
Q 44.484375 40.625 41.703125 44.40625 
Q 38.921875 48.1875 33.109375 48.1875 
Q 26.21875 48.1875 22.15625 43.53125 
Q 18.109375 38.875 18.109375 30.90625 
L 18.109375 0 
L 9.078125 0 
L 9.078125 54.6875 
L 18.109375 54.6875 
L 18.109375 46.1875 
Q 21.1875 51.21875 25.484375 53.609375 
Q 29.78125 56 35.6875 56 
Q 41.65625 56 45.828125 52.96875 
Q 50 49.953125 52 44.1875 
z
" id="DejaVuSans-109"/>
      <path d="M 56.203125 29.59375 
L 56.203125 25.203125 
L 14.890625 25.203125 
Q 15.484375 15.921875 20.484375 11.0625 
Q 25.484375 6.203125 34.421875 6.203125 
Q 39.59375 6.203125 44.453125 7.46875 
Q 49.3125 8.734375 54.109375 11.28125 
L 54.109375 2.78125 
Q 49.265625 0.734375 44.1875 -0.34375 
Q 39.109375 -1.421875 33.890625 -1.421875 
Q 20.796875 -1.421875 13.15625 6.1875 
Q 5.515625 13.8125 5.515625 26.8125 
Q 5.515625 40.234375 12.765625 48.109375 
Q 20.015625 56 32.328125 56 
Q 43.359375 56 49.78125 48.890625 
Q 56.203125 41.796875 56.203125 29.59375 
z
M 47.21875 32.234375 
Q 47.125 39.59375 43.09375 43.984375 
Q 39.0625 48.390625 32.421875 48.390625 
Q 24.90625 48.390625 20.390625 44.140625 
Q 15.875 39.890625 15.1875 32.171875 
z
" id="DejaVuSans-101"/>
      <path id="DejaVuSans-32"/>
      <path d="M 31 75.875 
Q 24.46875 64.65625 21.28125 53.65625 
Q 18.109375 42.671875 18.109375 31.390625 
Q 18.109375 20.125 21.3125 9.0625 
Q 24.515625 -2 31 -13.1875 
L 23.1875 -13.1875 
Q 15.875 -1.703125 12.234375 9.375 
Q 8.59375 20.453125 8.59375 31.390625 
Q 8.59375 42.28125 12.203125 53.3125 
Q 15.828125 64.359375 23.1875 75.875 
z
" id="DejaVuSans-40"/>
      <path d="M 44.28125 53.078125 
L 44.28125 44.578125 
Q 40.484375 46.53125 36.375 47.5 
Q 32.28125 48.484375 27.875 48.484375 
Q 21.1875 48.484375 17.84375 46.4375 
Q 14.5 44.390625 14.5 40.28125 
Q 14.5 37.15625 16.890625 35.375 
Q 19.28125 33.59375 26.515625 31.984375 
L 29.59375 31.296875 
Q 39.15625 29.25 43.1875 25.515625 
Q 47.21875 21.78125 47.21875 15.09375 
Q 47.21875 7.46875 41.1875 3.015625 
Q 35.15625 -1.421875 24.609375 -1.421875 
Q 20.21875 -1.421875 15.453125 -0.5625 
Q 10.6875 0.296875 5.421875 2 
L 5.421875 11.28125 
Q 10.40625 8.6875 15.234375 7.390625 
Q 20.0625 6.109375 24.8125 6.109375 
Q 31.15625 6.109375 34.5625 8.28125 
Q 37.984375 10.453125 37.984375 14.40625 
Q 37.984375 18.0625 35.515625 20.015625 
Q 33.0625 21.96875 24.703125 23.78125 
L 21.578125 24.515625 
Q 13.234375 26.265625 9.515625 29.90625 
Q 5.8125 33.546875 5.8125 39.890625 
Q 5.8125 47.609375 11.28125 51.796875 
Q 16.75 56 26.8125 56 
Q 31.78125 56 36.171875 55.265625 
Q 40.578125 54.546875 44.28125 53.078125 
z
" id="DejaVuSans-115"/>
      <path d="M 8.015625 75.875 
L 15.828125 75.875 
Q 23.140625 64.359375 26.78125 53.3125 
Q 30.421875 42.28125 30.421875 31.390625 
Q 30.421875 20.453125 26.78125 9.375 
Q 23.140625 -1.703125 15.828125 -13.1875 
L 8.015625 -13.1875 
Q 14.5 -2 17.703125 9.0625 
Q 20.90625 20.125 20.90625 31.390625 
Q 20.90625 42.671875 17.703125 53.65625 
Q 14.5 64.65625 8.015625 75.875 
z
" id="DejaVuSans-41"/>
     </defs>
     <g transform="translate(215.677188 335.860562)scale(0.1 -0.1)">
      <use xlink:href="#DejaVuSans-84"/>
      <use x="61.037109" xlink:href="#DejaVuSans-105"/>
      <use x="88.820312" xlink:href="#DejaVuSans-109"/>
      <use x="186.232422" xlink:href="#DejaVuSans-101"/>
      <use x="247.755859" xlink:href="#DejaVuSans-32"/>
      <use x="279.542969" xlink:href="#DejaVuSans-40"/>
      <use x="318.556641" xlink:href="#DejaVuSans-115"/>
      <use x="370.65625" xlink:href="#DejaVuSans-41"/>
     </g>
    </g>
   </g>
   <g id="matplotlib.axis_2">
    <g id="ytick_1">
     <g id="line2d_7">
      <defs>
       <path d="M 0 0 
L -3.5 0 
" id="m81b98e4099" style="stroke:#000000;stroke-width:0.8;"/>
      </defs>
      <g>
       <use style="stroke:#000000;stroke-width:0.8;" x="57.6" xlink:href="#m81b98e4099" y="293.244458"/>
      </g>
     </g>
     <g id="text_8">
      <!-- 0.0 -->
      <defs>
       <path d="M 10.6875 12.40625 
L 21 12.40625 
L 21 0 
L 10.6875 0 
z
" id="DejaVuSans-46"/>
      </defs>
      <g transform="translate(34.696875 297.043677)scale(0.1 -0.1)">
       <use xlink:href="#DejaVuSans-48"/>
       <use x="63.623047" xlink:href="#DejaVuSans-46"/>
       <use x="95.410156" xlink:href="#DejaVuSans-48"/>
      </g>
     </g>
    </g>
    <g id="ytick_2">
     <g id="line2d_8">
      <g>
       <use style="stroke:#000000;stroke-width:0.8;" x="57.6" xlink:href="#m81b98e4099" y="247.081046"/>
      </g>
     </g>
     <g id="text_9">
      <!-- 0.5 -->
      <defs>
       <path d="M 10.796875 72.90625 
L 49.515625 72.90625 
L 49.515625 64.59375 
L 19.828125 64.59375 
L 19.828125 46.734375 
Q 21.96875 47.46875 24.109375 47.828125 
Q 26.265625 48.1875 28.421875 48.1875 
Q 40.625 48.1875 47.75 41.5 
Q 54.890625 34.8125 54.890625 23.390625 
Q 54.890625 11.625 47.5625 5.09375 
Q 40.234375 -1.421875 26.90625 -1.421875 
Q 22.3125 -1.421875 17.546875 -0.640625 
Q 12.796875 0.140625 7.71875 1.703125 
L 7.71875 11.625 
Q 12.109375 9.234375 16.796875 8.0625 
Q 21.484375 6.890625 26.703125 6.890625 
Q 35.15625 6.890625 40.078125 11.328125 
Q 45.015625 15.765625 45.015625 23.390625 
Q 45.015625 31 40.078125 35.4375 
Q 35.15625 39.890625 26.703125 39.890625 
Q 22.75 39.890625 18.8125 39.015625 
Q 14.890625 38.140625 10.796875 36.28125 
z
" id="DejaVuSans-53"/>
      </defs>
      <g transform="translate(34.696875 250.880265)scale(0.1 -0.1)">
       <use xlink:href="#DejaVuSans-48"/>
       <use x="63.623047" xlink:href="#DejaVuSans-46"/>
       <use x="95.410156" xlink:href="#DejaVuSans-53"/>
      </g>
     </g>
    </g>
    <g id="ytick_3">
     <g id="line2d_9">
      <g>
       <use style="stroke:#000000;stroke-width:0.8;" x="57.6" xlink:href="#m81b98e4099" y="200.917634"/>
      </g>
     </g>
     <g id="text_10">
      <!-- 1.0 -->
      <g transform="translate(34.696875 204.716852)scale(0.1 -0.1)">
       <use xlink:href="#DejaVuSans-49"/>
       <use x="63.623047" xlink:href="#DejaVuSans-46"/>
       <use x="95.410156" xlink:href="#DejaVuSans-48"/>
      </g>
     </g>
    </g>
    <g id="ytick_4">
     <g id="line2d_10">
      <g>
       <use style="stroke:#000000;stroke-width:0.8;" x="57.6" xlink:href="#m81b98e4099" y="154.754221"/>
      </g>
     </g>
     <g id="text_11">
      <!-- 1.5 -->
      <g transform="translate(34.696875 158.55344)scale(0.1 -0.1)">
       <use xlink:href="#DejaVuSans-49"/>
       <use x="63.623047" xlink:href="#DejaVuSans-46"/>
       <use x="95.410156" xlink:href="#DejaVuSans-53"/>
      </g>
     </g>
    </g>
    <g id="ytick_5">
     <g id="line2d_11">
      <g>
       <use style="stroke:#000000;stroke-width:0.8;" x="57.6" xlink:href="#m81b98e4099" y="108.590809"/>
      </g>
     </g>
     <g id="text_12">
      <!-- 2.0 -->
      <g transform="translate(34.696875 112.390028)scale(0.1 -0.1)">
       <use xlink:href="#DejaVuSans-50"/>
       <use x="63.623047" xlink:href="#DejaVuSans-46"/>
       <use x="95.410156" xlink:href="#DejaVuSans-48"/>
      </g>
     </g>
    </g>
    <g id="ytick_6">
     <g id="line2d_12">
      <g>
       <use style="stroke:#000000;stroke-width:0.8;" x="57.6" xlink:href="#m81b98e4099" y="62.427397"/>
      </g>
     </g>
     <g id="text_13">
      <!-- 2.5 -->
      <g transform="translate(34.696875 66.226615)scale(0.1 -0.1)">
       <use xlink:href="#DejaVuSans-50"/>
       <use x="63.623047" xlink:href="#DejaVuSans-46"/>
       <use x="95.410156" xlink:href="#DejaVuSans-53"/>
      </g>
     </g>
    </g>
    <g id="text_14">
     <!-- Stress, Strain -->
     <defs>
      <path d="M 53.515625 70.515625 
L 53.515625 60.890625 
Q 47.90625 63.578125 42.921875 64.890625 
Q 37.9375 66.21875 33.296875 66.21875 
Q 25.25 66.21875 20.875 63.09375 
Q 16.5 59.96875 16.5 54.203125 
Q 16.5 49.359375 19.40625 46.890625 
Q 22.3125 44.4375 30.421875 42.921875 
L 36.375 41.703125 
Q 47.40625 39.59375 52.65625 34.296875 
Q 57.90625 29 57.90625 20.125 
Q 57.90625 9.515625 50.796875 4.046875 
Q 43.703125 -1.421875 29.984375 -1.421875 
Q 24.8125 -1.421875 18.96875 -0.25 
Q 13.140625 0.921875 6.890625 3.21875 
L 6.890625 13.375 
Q 12.890625 10.015625 18.65625 8.296875 
Q 24.421875 6.59375 29.984375 6.59375 
Q 38.421875 6.59375 43.015625 9.90625 
Q 47.609375 13.234375 47.609375 19.390625 
Q 47.609375 24.75 44.3125 27.78125 
Q 41.015625 30.8125 33.5 32.328125 
L 27.484375 33.5 
Q 16.453125 35.6875 11.515625 40.375 
Q 6.59375 45.0625 6.59375 53.421875 
Q 6.59375 63.09375 13.40625 68.65625 
Q 20.21875 74.21875 32.171875 74.21875 
Q 37.3125 74.21875 42.625 73.28125 
Q 47.953125 72.359375 53.515625 70.515625 
z
" id="DejaVuSans-83"/>
      <path d="M 18.3125 70.21875 
L 18.3125 54.6875 
L 36.8125 54.6875 
L 36.8125 47.703125 
L 18.3125 47.703125 
L 18.3125 18.015625 
Q 18.3125 11.328125 20.140625 9.421875 
Q 21.96875 7.515625 27.59375 7.515625 
L 36.8125 7.515625 
L 36.8125 0 
L 27.59375 0 
Q 17.1875 0 13.234375 3.875 
Q 9.28125 7.765625 9.28125 18.015625 
L 9.28125 47.703125 
L 2.6875 47.703125 
L 2.6875 54.6875 
L 9.28125 54.6875 
L 9.28125 70.21875 
z
" id="DejaVuSans-116"/>
      <path d="M 41.109375 46.296875 
Q 39.59375 47.171875 37.8125 47.578125 
Q 36.03125 48 33.890625 48 
Q 26.265625 48 22.1875 43.046875 
Q 18.109375 38.09375 18.109375 28.8125 
L 18.109375 0 
L 9.078125 0 
L 9.078125 54.6875 
L 18.109375 54.6875 
L 18.109375 46.1875 
Q 20.953125 51.171875 25.484375 53.578125 
Q 30.03125 56 36.53125 56 
Q 37.453125 56 38.578125 55.875 
Q 39.703125 55.765625 41.0625 55.515625 
z
" id="DejaVuSans-114"/>
      <path d="M 11.71875 12.40625 
L 22.015625 12.40625 
L 22.015625 4 
L 14.015625 -11.625 
L 7.71875 -11.625 
L 11.71875 4 
z
" id="DejaVuSans-44"/>
      <path d="M 34.28125 27.484375 
Q 23.390625 27.484375 19.1875 25 
Q 14.984375 22.515625 14.984375 16.5 
Q 14.984375 11.71875 18.140625 8.90625 
Q 21.296875 6.109375 26.703125 6.109375 
Q 34.1875 6.109375 38.703125 11.40625 
Q 43.21875 16.703125 43.21875 25.484375 
L 43.21875 27.484375 
z
M 52.203125 31.203125 
L 52.203125 0 
L 43.21875 0 
L 43.21875 8.296875 
Q 40.140625 3.328125 35.546875 0.953125 
Q 30.953125 -1.421875 24.3125 -1.421875 
Q 15.921875 -1.421875 10.953125 3.296875 
Q 6 8.015625 6 15.921875 
Q 6 25.140625 12.171875 29.828125 
Q 18.359375 34.515625 30.609375 34.515625 
L 43.21875 34.515625 
L 43.21875 35.40625 
Q 43.21875 41.609375 39.140625 45 
Q 35.0625 48.390625 27.6875 48.390625 
Q 23 48.390625 18.546875 47.265625 
Q 14.109375 46.140625 10.015625 43.890625 
L 10.015625 52.203125 
Q 14.9375 54.109375 19.578125 55.046875 
Q 24.21875 56 28.609375 56 
Q 40.484375 56 46.34375 49.84375 
Q 52.203125 43.703125 52.203125 31.203125 
z
" id="DejaVuSans-97"/>
      <path d="M 54.890625 33.015625 
L 54.890625 0 
L 45.90625 0 
L 45.90625 32.71875 
Q 45.90625 40.484375 42.875 44.328125 
Q 39.84375 48.1875 33.796875 48.1875 
Q 26.515625 48.1875 22.3125 43.546875 
Q 18.109375 38.921875 18.109375 30.90625 
L 18.109375 0 
L 9.078125 0 
L 9.078125 54.6875 
L 18.109375 54.6875 
L 18.109375 46.1875 
Q 21.34375 51.125 25.703125 53.5625 
Q 30.078125 56 35.796875 56 
Q 45.21875 56 50.046875 50.171875 
Q 54.890625 44.34375 54.890625 33.015625 
z
" id="DejaVuSans-110"/>
     </defs>
     <g transform="translate(28.617187 207.992063)rotate(-90)scale(0.1 -0.1)">
      <use xlink:href="#DejaVuSans-83"/>
      <use x="63.476562" xlink:href="#DejaVuSans-116"/>
      <use x="102.685547" xlink:href="#DejaVuSans-114"/>
      <use x="143.767578" xlink:href="#DejaVuSans-101"/>
      <use x="205.291016" xlink:href="#DejaVuSans-115"/>
      <use x="257.390625" xlink:href="#DejaVuSans-115"/>
      <use x="309.490234" xlink:href="#DejaVuSans-44"/>
      <use x="341.277344" xlink:href="#DejaVuSans-32"/>
      <use x="373.064453" xlink:href="#DejaVuSans-83"/>
      <use x="436.541016" xlink:href="#DejaVuSans-116"/>
      <use x="475.75" xlink:href="#DejaVuSans-114"/>
      <use x="516.863281" xlink:href="#DejaVuSans-97"/>
      <use x="578.142578" xlink:href="#DejaVuSans-105"/>
      <use x="605.925781" xlink:href="#DejaVuSans-110"/>
     </g>
    </g>
   </g>
   <g id="line2d_13">
    <path clip-path="url(#p437d98a463)" d="M 73.832727 293.244458 
L 77.079273 293.244458 
L 80.325818 293.244458 
L 83.572364 293.244458 
L 86.818909 293.244458 
L 90.065455 293.244458 
L 93.312 293.244458 
L 96.558545 293.244458 
L 99.805091 293.244458 
L 103.051636 293.244458 
L 106.298182 293.244458 
L 109.544727 284.011776 
L 112.791273 274.779093 
L 116.037818 265.546411 
L 119.284364 256.313728 
L 122.530909 247.081046 
L 125.777455 237.848363 
L 129.024 228.615681 
L 132.270545 219.382998 
L 135.517091 210.150316 
L 138.763636 200.917634 
L 142.010182 191.684951 
L 145.256727 182.452269 
L 148.503273 173.219586 
L 151.749818 163.986904 
L 154.996364 154.754221 
L 158.242909 145.521539 
L 161.489455 136.288856 
L 164.736 127.056174 
L 167.982545 117.823491 
L 171.229091 108.590809 
L 174.475636 108.590809 
L 177.722182 108.590809 
L 180.968727 108.590809 
L 184.215273 108.590809 
L 187.461818 108.590809 
L 190.708364 108.590809 
L 193.954909 108.590809 
L 197.201455 108.590809 
L 200.448 108.590809 
L 203.694545 108.590809 
L 206.941091 108.590809 
L 210.187636 108.590809 
L 213.434182 108.590809 
L 216.680727 108.590809 
L 219.927273 108.590809 
L 223.173818 108.590809 
L 226.420364 108.590809 
L 229.666909 108.590809 
L 232.913455 108.590809 
L 236.16 108.590809 
L 239.406545 108.590809 
L 242.653091 108.590809 
L 245.899636 108.590809 
L 249.146182 108.590809 
L 252.392727 108.590809 
L 255.639273 108.590809 
L 258.885818 108.590809 
L 262.132364 108.590809 
L 265.378909 108.590809 
L 268.625455 108.590809 
L 271.872 108.590809 
L 275.118545 108.590809 
L 278.365091 108.590809 
L 281.611636 108.590809 
L 284.858182 108.590809 
L 288.104727 108.590809 
L 291.351273 108.590809 
L 294.597818 108.590809 
L 297.844364 108.590809 
L 301.090909 108.590809 
L 304.337455 108.590809 
L 307.584 108.590809 
L 310.830545 108.590809 
L 314.077091 108.590809 
L 317.323636 108.590809 
L 320.570182 108.590809 
L 323.816727 108.590809 
L 327.063273 108.590809 
L 330.309818 108.590809 
L 333.556364 108.590809 
L 336.802909 108.590809 
L 340.049455 108.590809 
L 343.296 108.590809 
L 346.542545 108.590809 
L 349.789091 108.590809 
L 353.035636 108.590809 
L 356.282182 108.590809 
L 359.528727 108.590809 
L 362.775273 108.590809 
L 366.021818 108.590809 
L 369.268364 108.590809 
L 372.514909 108.590809 
L 375.761455 108.590809 
L 379.008 108.590809 
L 382.254545 108.590809 
L 385.501091 108.590809 
L 388.747636 108.590809 
L 391.994182 108.590809 
L 395.240727 108.590809 
L 398.487273 108.590809 
" style="fill:none;stroke:#1f77b4;stroke-dasharray:5.55,2.4;stroke-dashoffset:0;stroke-width:1.5;"/>
   </g>
   <g id="line2d_14">
    <defs>
     <path d="M 0 1.5 
C 0.397805 1.5 0.77937 1.341951 1.06066 1.06066 
C 1.341951 0.77937 1.5 0.397805 1.5 0 
C 1.5 -0.397805 1.341951 -0.77937 1.06066 -1.06066 
C 0.77937 -1.341951 0.397805 -1.5 0 -1.5 
C -0.397805 -1.5 -0.77937 -1.341951 -1.06066 -1.06066 
C -1.341951 -0.77937 -1.5 -0.397805 -1.5 0 
C -1.5 0.397805 -1.341951 0.77937 -1.06066 1.06066 
C -0.77937 1.341951 -0.397805 1.5 0 1.5 
z
" id="m50f04621c7" style="stroke:#ff7f0e;"/>
    </defs>
    <g clip-path="url(#p437d98a463)">
     <use style="fill:#ff7f0e;stroke:#ff7f0e;" x="73.832727" xlink:href="#m50f04621c7" y="294.823247"/>
     <use style="fill:#ff7f0e;stroke:#ff7f0e;" x="77.079273" xlink:href="#m50f04621c7" y="295.488"/>
     <use style="fill:#ff7f0e;stroke:#ff7f0e;" x="80.325818" xlink:href="#m50f04621c7" y="295.266416"/>
     <use style="fill:#ff7f0e;stroke:#ff7f0e;" x="83.572364" xlink:href="#m50f04621c7" y="293.461426"/>
     <use style="fill:#ff7f0e;stroke:#ff7f0e;" x="86.818909" xlink:href="#m50f04621c7" y="294.389311"/>
     <use style="fill:#ff7f0e;stroke:#ff7f0e;" x="90.065455" xlink:href="#m50f04621c7" y="294.49087"/>
     <use style="fill:#ff7f0e;stroke:#ff7f0e;" x="93.312" xlink:href="#m50f04621c7" y="293.605456"/>
     <use style="fill:#ff7f0e;stroke:#ff7f0e;" x="96.558545" xlink:href="#m50f04621c7" y="292.090373"/>
     <use style="fill:#ff7f0e;stroke:#ff7f0e;" x="99.805091" xlink:href="#m50f04621c7" y="291.711833"/>
     <use style="fill:#ff7f0e;stroke:#ff7f0e;" x="103.051636" xlink:href="#m50f04621c7" y="294.620128"/>
     <use style="fill:#ff7f0e;stroke:#ff7f0e;" x="106.298182" xlink:href="#m50f04621c7" y="291.305595"/>
     <use style="fill:#ff7f0e;stroke:#ff7f0e;" x="109.544727" xlink:href="#m50f04621c7" y="272.744593"/>
     <use style="fill:#ff7f0e;stroke:#ff7f0e;" x="112.791273" xlink:href="#m50f04621c7" y="256.18095"/>
     <use style="fill:#ff7f0e;stroke:#ff7f0e;" x="116.037818" xlink:href="#m50f04621c7" y="241.769794"/>
     <use style="fill:#ff7f0e;stroke:#ff7f0e;" x="119.284364" xlink:href="#m50f04621c7" y="223.244226"/>
     <use style="fill:#ff7f0e;stroke:#ff7f0e;" x="122.530909" xlink:href="#m50f04621c7" y="209.102896"/>
     <use style="fill:#ff7f0e;stroke:#ff7f0e;" x="125.777455" xlink:href="#m50f04621c7" y="197.094764"/>
     <use style="fill:#ff7f0e;stroke:#ff7f0e;" x="129.024" xlink:href="#m50f04621c7" y="180.407271"/>
     <use style="fill:#ff7f0e;stroke:#ff7f0e;" x="132.270545" xlink:href="#m50f04621c7" y="167.031692"/>
     <use style="fill:#ff7f0e;stroke:#ff7f0e;" x="135.517091" xlink:href="#m50f04621c7" y="157.077699"/>
     <use style="fill:#ff7f0e;stroke:#ff7f0e;" x="138.763636" xlink:href="#m50f04621c7" y="145.711769"/>
     <use style="fill:#ff7f0e;stroke:#ff7f0e;" x="142.010182" xlink:href="#m50f04621c7" y="134.073199"/>
     <use style="fill:#ff7f0e;stroke:#ff7f0e;" x="145.256727" xlink:href="#m50f04621c7" y="123.541451"/>
     <use style="fill:#ff7f0e;stroke:#ff7f0e;" x="148.503273" xlink:href="#m50f04621c7" y="110.09708"/>
     <use style="fill:#ff7f0e;stroke:#ff7f0e;" x="151.749818" xlink:href="#m50f04621c7" y="101.180961"/>
     <use style="fill:#ff7f0e;stroke:#ff7f0e;" x="154.996364" xlink:href="#m50f04621c7" y="91.70427"/>
     <use style="fill:#ff7f0e;stroke:#ff7f0e;" x="158.242909" xlink:href="#m50f04621c7" y="82.88475"/>
     <use style="fill:#ff7f0e;stroke:#ff7f0e;" x="161.489455" xlink:href="#m50f04621c7" y="76.746383"/>
     <use style="fill:#ff7f0e;stroke:#ff7f0e;" x="164.736" xlink:href="#m50f04621c7" y="69.353908"/>
     <use style="fill:#ff7f0e;stroke:#ff7f0e;" x="167.982545" xlink:href="#m50f04621c7" y="60.314511"/>
     <use style="fill:#ff7f0e;stroke:#ff7f0e;" x="171.229091" xlink:href="#m50f04621c7" y="54.51336"/>
     <use style="fill:#ff7f0e;stroke:#ff7f0e;" x="174.475636" xlink:href="#m50f04621c7" y="64.395928"/>
     <use style="fill:#ff7f0e;stroke:#ff7f0e;" x="177.722182" xlink:href="#m50f04621c7" y="77.88328"/>
     <use style="fill:#ff7f0e;stroke:#ff7f0e;" x="180.968727" xlink:href="#m50f04621c7" y="85.809347"/>
     <use style="fill:#ff7f0e;stroke:#ff7f0e;" x="184.215273" xlink:href="#m50f04621c7" y="95.348356"/>
     <use style="fill:#ff7f0e;stroke:#ff7f0e;" x="187.461818" xlink:href="#m50f04621c7" y="106.797976"/>
     <use style="fill:#ff7f0e;stroke:#ff7f0e;" x="190.708364" xlink:href="#m50f04621c7" y="116.825007"/>
     <use style="fill:#ff7f0e;stroke:#ff7f0e;" x="193.954909" xlink:href="#m50f04621c7" y="125.361727"/>
     <use style="fill:#ff7f0e;stroke:#ff7f0e;" x="197.201455" xlink:href="#m50f04621c7" y="133.284243"/>
     <use style="fill:#ff7f0e;stroke:#ff7f0e;" x="200.448" xlink:href="#m50f04621c7" y="141.018867"/>
     <use style="fill:#ff7f0e;stroke:#ff7f0e;" x="203.694545" xlink:href="#m50f04621c7" y="147.58324"/>
     <use style="fill:#ff7f0e;stroke:#ff7f0e;" x="206.941091" xlink:href="#m50f04621c7" y="153.397275"/>
     <use style="fill:#ff7f0e;stroke:#ff7f0e;" x="210.187636" xlink:href="#m50f04621c7" y="159.629471"/>
     <use style="fill:#ff7f0e;stroke:#ff7f0e;" x="213.434182" xlink:href="#m50f04621c7" y="167.482998"/>
     <use style="fill:#ff7f0e;stroke:#ff7f0e;" x="216.680727" xlink:href="#m50f04621c7" y="172.259306"/>
     <use style="fill:#ff7f0e;stroke:#ff7f0e;" x="219.927273" xlink:href="#m50f04621c7" y="182.433963"/>
     <use style="fill:#ff7f0e;stroke:#ff7f0e;" x="223.173818" xlink:href="#m50f04621c7" y="186.097447"/>
     <use style="fill:#ff7f0e;stroke:#ff7f0e;" x="226.420364" xlink:href="#m50f04621c7" y="192.412309"/>
     <use style="fill:#ff7f0e;stroke:#ff7f0e;" x="229.666909" xlink:href="#m50f04621c7" y="193.750158"/>
     <use style="fill:#ff7f0e;stroke:#ff7f0e;" x="232.913455" xlink:href="#m50f04621c7" y="202.511729"/>
     <use style="fill:#ff7f0e;stroke:#ff7f0e;" x="236.16" xlink:href="#m50f04621c7" y="207.262476"/>
     <use style="fill:#ff7f0e;stroke:#ff7f0e;" x="239.406545" xlink:href="#m50f04621c7" y="210.845034"/>
     <use style="fill:#ff7f0e;stroke:#ff7f0e;" x="242.653091" xlink:href="#m50f04621c7" y="212.744915"/>
     <use style="fill:#ff7f0e;stroke:#ff7f0e;" x="245.899636" xlink:href="#m50f04621c7" y="216.459701"/>
     <use style="fill:#ff7f0e;stroke:#ff7f0e;" x="249.146182" xlink:href="#m50f04621c7" y="220.371658"/>
     <use style="fill:#ff7f0e;stroke:#ff7f0e;" x="252.392727" xlink:href="#m50f04621c7" y="223.000614"/>
     <use style="fill:#ff7f0e;stroke:#ff7f0e;" x="255.639273" xlink:href="#m50f04621c7" y="229.725136"/>
     <use style="fill:#ff7f0e;stroke:#ff7f0e;" x="258.885818" xlink:href="#m50f04621c7" y="230.269757"/>
     <use style="fill:#ff7f0e;stroke:#ff7f0e;" x="262.132364" xlink:href="#m50f04621c7" y="235.623373"/>
     <use style="fill:#ff7f0e;stroke:#ff7f0e;" x="265.378909" xlink:href="#m50f04621c7" y="237.982088"/>
     <use style="fill:#ff7f0e;stroke:#ff7f0e;" x="268.625455" xlink:href="#m50f04621c7" y="241.863504"/>
     <use style="fill:#ff7f0e;stroke:#ff7f0e;" x="271.872" xlink:href="#m50f04621c7" y="241.969965"/>
     <use style="fill:#ff7f0e;stroke:#ff7f0e;" x="275.118545" xlink:href="#m50f04621c7" y="246.899204"/>
     <use style="fill:#ff7f0e;stroke:#ff7f0e;" x="278.365091" xlink:href="#m50f04621c7" y="247.164591"/>
     <use style="fill:#ff7f0e;stroke:#ff7f0e;" x="281.611636" xlink:href="#m50f04621c7" y="251.562278"/>
     <use style="fill:#ff7f0e;stroke:#ff7f0e;" x="284.858182" xlink:href="#m50f04621c7" y="251.79484"/>
     <use style="fill:#ff7f0e;stroke:#ff7f0e;" x="288.104727" xlink:href="#m50f04621c7" y="253.548333"/>
     <use style="fill:#ff7f0e;stroke:#ff7f0e;" x="291.351273" xlink:href="#m50f04621c7" y="254.214322"/>
     <use style="fill:#ff7f0e;stroke:#ff7f0e;" x="294.597818" xlink:href="#m50f04621c7" y="256.108938"/>
     <use style="fill:#ff7f0e;stroke:#ff7f0e;" x="297.844364" xlink:href="#m50f04621c7" y="258.693957"/>
     <use style="fill:#ff7f0e;stroke:#ff7f0e;" x="301.090909" xlink:href="#m50f04621c7" y="261.706814"/>
     <use style="fill:#ff7f0e;stroke:#ff7f0e;" x="304.337455" xlink:href="#m50f04621c7" y="261.620711"/>
     <use style="fill:#ff7f0e;stroke:#ff7f0e;" x="307.584" xlink:href="#m50f04621c7" y="263.470706"/>
     <use style="fill:#ff7f0e;stroke:#ff7f0e;" x="310.830545" xlink:href="#m50f04621c7" y="263.708097"/>
     <use style="fill:#ff7f0e;stroke:#ff7f0e;" x="314.077091" xlink:href="#m50f04621c7" y="265.399404"/>
     <use style="fill:#ff7f0e;stroke:#ff7f0e;" x="317.323636" xlink:href="#m50f04621c7" y="267.962919"/>
     <use style="fill:#ff7f0e;stroke:#ff7f0e;" x="320.570182" xlink:href="#m50f04621c7" y="267.524698"/>
     <use style="fill:#ff7f0e;stroke:#ff7f0e;" x="323.816727" xlink:href="#m50f04621c7" y="271.265687"/>
     <use style="fill:#ff7f0e;stroke:#ff7f0e;" x="327.063273" xlink:href="#m50f04621c7" y="271.280138"/>
     <use style="fill:#ff7f0e;stroke:#ff7f0e;" x="330.309818" xlink:href="#m50f04621c7" y="271.136691"/>
     <use style="fill:#ff7f0e;stroke:#ff7f0e;" x="333.556364" xlink:href="#m50f04621c7" y="271.489761"/>
     <use style="fill:#ff7f0e;stroke:#ff7f0e;" x="336.802909" xlink:href="#m50f04621c7" y="272.300327"/>
     <use style="fill:#ff7f0e;stroke:#ff7f0e;" x="340.049455" xlink:href="#m50f04621c7" y="277.368346"/>
     <use style="fill:#ff7f0e;stroke:#ff7f0e;" x="343.296" xlink:href="#m50f04621c7" y="275.593112"/>
     <use style="fill:#ff7f0e;stroke:#ff7f0e;" x="346.542545" xlink:href="#m50f04621c7" y="276.077752"/>
     <use style="fill:#ff7f0e;stroke:#ff7f0e;" x="349.789091" xlink:href="#m50f04621c7" y="279.654438"/>
     <use style="fill:#ff7f0e;stroke:#ff7f0e;" x="353.035636" xlink:href="#m50f04621c7" y="278.190356"/>
     <use style="fill:#ff7f0e;stroke:#ff7f0e;" x="356.282182" xlink:href="#m50f04621c7" y="280.499993"/>
     <use style="fill:#ff7f0e;stroke:#ff7f0e;" x="359.528727" xlink:href="#m50f04621c7" y="279.434152"/>
     <use style="fill:#ff7f0e;stroke:#ff7f0e;" x="362.775273" xlink:href="#m50f04621c7" y="279.77255"/>
     <use style="fill:#ff7f0e;stroke:#ff7f0e;" x="366.021818" xlink:href="#m50f04621c7" y="279.457534"/>
     <use style="fill:#ff7f0e;stroke:#ff7f0e;" x="369.268364" xlink:href="#m50f04621c7" y="280.852585"/>
     <use style="fill:#ff7f0e;stroke:#ff7f0e;" x="372.514909" xlink:href="#m50f04621c7" y="284.53307"/>
     <use style="fill:#ff7f0e;stroke:#ff7f0e;" x="375.761455" xlink:href="#m50f04621c7" y="284.047831"/>
     <use style="fill:#ff7f0e;stroke:#ff7f0e;" x="379.008" xlink:href="#m50f04621c7" y="283.301112"/>
     <use style="fill:#ff7f0e;stroke:#ff7f0e;" x="382.254545" xlink:href="#m50f04621c7" y="281.939285"/>
     <use style="fill:#ff7f0e;stroke:#ff7f0e;" x="385.501091" xlink:href="#m50f04621c7" y="285.472375"/>
     <use style="fill:#ff7f0e;stroke:#ff7f0e;" x="388.747636" xlink:href="#m50f04621c7" y="286.264599"/>
     <use style="fill:#ff7f0e;stroke:#ff7f0e;" x="391.994182" xlink:href="#m50f04621c7" y="283.326446"/>
     <use style="fill:#ff7f0e;stroke:#ff7f0e;" x="395.240727" xlink:href="#m50f04621c7" y="285.454659"/>
     <use style="fill:#ff7f0e;stroke:#ff7f0e;" x="398.487273" xlink:href="#m50f04621c7" y="288.162895"/>
    </g>
   </g>
   <g id="line2d_15">
    <path clip-path="url(#p437d98a463)" d="M 73.832727 293.244458 
L 77.079273 293.244458 
L 80.325818 293.244458 
L 83.572364 293.244458 
L 86.818909 293.244458 
L 90.065455 293.244458 
L 93.312 293.244458 
L 96.558545 293.244458 
L 99.805091 293.244458 
L 103.051636 293.244458 
L 106.298182 293.244458 
L 109.544727 274.751395 
L 112.791273 257.160381 
L 116.037818 240.427415 
L 119.284364 224.510645 
L 122.530909 209.370257 
L 125.777455 194.968383 
L 129.024 181.268999 
L 132.270545 168.237839 
L 135.517091 155.842309 
L 138.763636 144.051404 
L 142.010182 132.835631 
L 145.256727 122.166939 
L 148.503273 112.01864 
L 151.749818 102.365352 
L 154.996364 93.182929 
L 158.242909 84.448403 
L 161.489455 76.139927 
L 164.736 68.236719 
L 167.982545 60.719011 
L 171.229091 53.568 
L 174.475636 65.258862 
L 177.722182 76.37947 
L 180.968727 86.957641 
L 184.215273 97.019833 
L 187.461818 106.591215 
L 190.708364 115.695728 
L 193.954909 124.356143 
L 197.201455 132.594123 
L 200.448 140.430274 
L 203.694545 147.884195 
L 206.941091 154.974531 
L 210.187636 161.719018 
L 213.434182 168.134523 
L 216.680727 174.237096 
L 219.927273 180.041999 
L 223.173818 185.563752 
L 226.420364 190.816167 
L 229.666909 195.812382 
L 232.913455 200.564892 
L 236.16 205.085586 
L 239.406545 209.385772 
L 242.653091 213.476204 
L 245.899636 217.367114 
L 249.146182 221.068235 
L 252.392727 224.588824 
L 255.639273 227.937686 
L 258.885818 231.123199 
L 262.132364 234.15333 
L 265.378909 237.035658 
L 268.625455 239.777393 
L 271.872 242.385392 
L 275.118545 244.86618 
L 278.365091 247.22596 
L 281.611636 249.470635 
L 284.858182 251.605821 
L 288.104727 253.636857 
L 291.351273 255.568824 
L 294.597818 257.406554 
L 297.844364 259.154644 
L 301.090909 260.817466 
L 304.337455 262.399179 
L 307.584 263.90374 
L 310.830545 265.334913 
L 314.077091 266.696276 
L 317.323636 267.991234 
L 320.570182 269.223028 
L 323.816727 270.394738 
L 327.063273 271.509294 
L 330.309818 272.569485 
L 333.556364 273.577962 
L 336.802909 274.537248 
L 340.049455 275.449742 
L 343.296 276.317727 
L 346.542545 277.143374 
L 349.789091 277.928748 
L 353.035636 278.675812 
L 356.282182 279.386437 
L 359.528727 280.062399 
L 362.775273 280.705389 
L 366.021818 281.317016 
L 369.268364 281.898809 
L 372.514909 282.452224 
L 375.761455 282.978644 
L 379.008 283.479386 
L 382.254545 283.955704 
L 385.501091 284.408788 
L 388.747636 284.839771 
L 391.994182 285.249732 
L 395.240727 285.639697 
L 398.487273 286.010639 
" style="fill:none;stroke:#2ca02c;stroke-linecap:square;stroke-width:1.5;"/>
   </g>
   <g id="patch_3">
    <path d="M 57.6 307.584 
L 57.6 41.472 
" style="fill:none;stroke:#000000;stroke-linecap:square;stroke-linejoin:miter;stroke-width:0.8;"/>
   </g>
   <g id="patch_4">
    <path d="M 414.72 307.584 
L 414.72 41.472 
" style="fill:none;stroke:#000000;stroke-linecap:square;stroke-linejoin:miter;stroke-width:0.8;"/>
   </g>
   <g id="patch_5">
    <path d="M 57.6 307.584 
L 414.72 307.584 
" style="fill:none;stroke:#000000;stroke-linecap:square;stroke-linejoin:miter;stroke-width:0.8;"/>
   </g>
   <g id="patch_6">
    <path d="M 57.6 41.472 
L 414.72 41.472 
" style="fill:none;stroke:#000000;stroke-linecap:square;stroke-linejoin:miter;stroke-width:0.8;"/>
   </g>
   <g id="legend_1">
    <g id="patch_7">
     <path d="M 286.454375 93.506375 
L 407.72 93.506375 
Q 409.72 93.506375 409.72 91.506375 
L 409.72 48.472 
Q 409.72 46.472 407.72 46.472 
L 286.454375 46.472 
Q 284.454375 46.472 284.454375 48.472 
L 284.454375 91.506375 
Q 284.454375 93.506375 286.454375 93.506375 
z
" style="fill:#ffffff;opacity:0.8;stroke:#cccccc;stroke-linejoin:miter;"/>
    </g>
    <g id="line2d_16">
     <path d="M 288.454375 54.570438 
L 308.454375 54.570438 
" style="fill:none;stroke:#1f77b4;stroke-dasharray:5.55,2.4;stroke-dashoffset:0;stroke-width:1.5;"/>
    </g>
    <g id="line2d_17"/>
    <g id="text_15">
     <!-- Strain (Data) -->
     <defs>
      <path d="M 19.671875 64.796875 
L 19.671875 8.109375 
L 31.59375 8.109375 
Q 46.6875 8.109375 53.6875 14.9375 
Q 60.6875 21.78125 60.6875 36.53125 
Q 60.6875 51.171875 53.6875 57.984375 
Q 46.6875 64.796875 31.59375 64.796875 
z
M 9.8125 72.90625 
L 30.078125 72.90625 
Q 51.265625 72.90625 61.171875 64.09375 
Q 71.09375 55.28125 71.09375 36.53125 
Q 71.09375 17.671875 61.125 8.828125 
Q 51.171875 0 30.078125 0 
L 9.8125 0 
z
" id="DejaVuSans-68"/>
     </defs>
     <g transform="translate(316.454375 58.070438)scale(0.1 -0.1)">
      <use xlink:href="#DejaVuSans-83"/>
      <use x="63.476562" xlink:href="#DejaVuSans-116"/>
      <use x="102.685547" xlink:href="#DejaVuSans-114"/>
      <use x="143.798828" xlink:href="#DejaVuSans-97"/>
      <use x="205.078125" xlink:href="#DejaVuSans-105"/>
      <use x="232.861328" xlink:href="#DejaVuSans-110"/>
      <use x="296.240234" xlink:href="#DejaVuSans-32"/>
      <use x="328.027344" xlink:href="#DejaVuSans-40"/>
      <use x="367.041016" xlink:href="#DejaVuSans-68"/>
      <use x="444.042969" xlink:href="#DejaVuSans-97"/>
      <use x="505.322266" xlink:href="#DejaVuSans-116"/>
      <use x="544.53125" xlink:href="#DejaVuSans-97"/>
      <use x="605.810547" xlink:href="#DejaVuSans-41"/>
     </g>
    </g>
    <g id="line2d_18"/>
    <g id="line2d_19">
     <g>
      <use style="fill:#ff7f0e;stroke:#ff7f0e;" x="298.454375" xlink:href="#m50f04621c7" y="69.248563"/>
     </g>
    </g>
    <g id="text_16">
     <!-- Stress (Data) -->
     <g transform="translate(316.454375 72.748563)scale(0.1 -0.1)">
      <use xlink:href="#DejaVuSans-83"/>
      <use x="63.476562" xlink:href="#DejaVuSans-116"/>
      <use x="102.685547" xlink:href="#DejaVuSans-114"/>
      <use x="143.767578" xlink:href="#DejaVuSans-101"/>
      <use x="205.291016" xlink:href="#DejaVuSans-115"/>
      <use x="257.390625" xlink:href="#DejaVuSans-115"/>
      <use x="309.490234" xlink:href="#DejaVuSans-32"/>
      <use x="341.277344" xlink:href="#DejaVuSans-40"/>
      <use x="380.291016" xlink:href="#DejaVuSans-68"/>
      <use x="457.292969" xlink:href="#DejaVuSans-97"/>
      <use x="518.572266" xlink:href="#DejaVuSans-116"/>
      <use x="557.78125" xlink:href="#DejaVuSans-97"/>
      <use x="619.060547" xlink:href="#DejaVuSans-41"/>
     </g>
    </g>
    <g id="line2d_20">
     <path d="M 288.454375 83.926688 
L 308.454375 83.926688 
" style="fill:none;stroke:#2ca02c;stroke-linecap:square;stroke-width:1.5;"/>
    </g>
    <g id="line2d_21"/>
    <g id="text_17">
     <!-- Stress (Predicted) -->
     <defs>
      <path d="M 19.671875 64.796875 
L 19.671875 37.40625 
L 32.078125 37.40625 
Q 38.96875 37.40625 42.71875 40.96875 
Q 46.484375 44.53125 46.484375 51.125 
Q 46.484375 57.671875 42.71875 61.234375 
Q 38.96875 64.796875 32.078125 64.796875 
z
M 9.8125 72.90625 
L 32.078125 72.90625 
Q 44.34375 72.90625 50.609375 67.359375 
Q 56.890625 61.8125 56.890625 51.125 
Q 56.890625 40.328125 50.609375 34.8125 
Q 44.34375 29.296875 32.078125 29.296875 
L 19.671875 29.296875 
L 19.671875 0 
L 9.8125 0 
z
" id="DejaVuSans-80"/>
      <path d="M 45.40625 46.390625 
L 45.40625 75.984375 
L 54.390625 75.984375 
L 54.390625 0 
L 45.40625 0 
L 45.40625 8.203125 
Q 42.578125 3.328125 38.25 0.953125 
Q 33.9375 -1.421875 27.875 -1.421875 
Q 17.96875 -1.421875 11.734375 6.484375 
Q 5.515625 14.40625 5.515625 27.296875 
Q 5.515625 40.1875 11.734375 48.09375 
Q 17.96875 56 27.875 56 
Q 33.9375 56 38.25 53.625 
Q 42.578125 51.265625 45.40625 46.390625 
z
M 14.796875 27.296875 
Q 14.796875 17.390625 18.875 11.75 
Q 22.953125 6.109375 30.078125 6.109375 
Q 37.203125 6.109375 41.296875 11.75 
Q 45.40625 17.390625 45.40625 27.296875 
Q 45.40625 37.203125 41.296875 42.84375 
Q 37.203125 48.484375 30.078125 48.484375 
Q 22.953125 48.484375 18.875 42.84375 
Q 14.796875 37.203125 14.796875 27.296875 
z
" id="DejaVuSans-100"/>
      <path d="M 48.78125 52.59375 
L 48.78125 44.1875 
Q 44.96875 46.296875 41.140625 47.34375 
Q 37.3125 48.390625 33.40625 48.390625 
Q 24.65625 48.390625 19.8125 42.84375 
Q 14.984375 37.3125 14.984375 27.296875 
Q 14.984375 17.28125 19.8125 11.734375 
Q 24.65625 6.203125 33.40625 6.203125 
Q 37.3125 6.203125 41.140625 7.25 
Q 44.96875 8.296875 48.78125 10.40625 
L 48.78125 2.09375 
Q 45.015625 0.34375 40.984375 -0.53125 
Q 36.96875 -1.421875 32.421875 -1.421875 
Q 20.0625 -1.421875 12.78125 6.34375 
Q 5.515625 14.109375 5.515625 27.296875 
Q 5.515625 40.671875 12.859375 48.328125 
Q 20.21875 56 33.015625 56 
Q 37.15625 56 41.109375 55.140625 
Q 45.0625 54.296875 48.78125 52.59375 
z
" id="DejaVuSans-99"/>
     </defs>
     <g transform="translate(316.454375 87.426688)scale(0.1 -0.1)">
      <use xlink:href="#DejaVuSans-83"/>
      <use x="63.476562" xlink:href="#DejaVuSans-116"/>
      <use x="102.685547" xlink:href="#DejaVuSans-114"/>
      <use x="143.767578" xlink:href="#DejaVuSans-101"/>
      <use x="205.291016" xlink:href="#DejaVuSans-115"/>
      <use x="257.390625" xlink:href="#DejaVuSans-115"/>
      <use x="309.490234" xlink:href="#DejaVuSans-32"/>
      <use x="341.277344" xlink:href="#DejaVuSans-40"/>
      <use x="380.291016" xlink:href="#DejaVuSans-80"/>
      <use x="440.578125" xlink:href="#DejaVuSans-114"/>
      <use x="481.660156" xlink:href="#DejaVuSans-101"/>
      <use x="543.183594" xlink:href="#DejaVuSans-100"/>
      <use x="606.660156" xlink:href="#DejaVuSans-105"/>
      <use x="634.443359" xlink:href="#DejaVuSans-99"/>
      <use x="689.423828" xlink:href="#DejaVuSans-116"/>
      <use x="728.632812" xlink:href="#DejaVuSans-101"/>
      <use x="790.15625" xlink:href="#DejaVuSans-100"/>
      <use x="853.632812" xlink:href="#DejaVuSans-41"/>
     </g>
    </g>
   </g>
  </g>
 </g>
 <defs>
  <clipPath id="p437d98a463">
   <rect height="266.112" width="357.12" x="57.6" y="41.472"/>
  </clipPath>
 </defs>
</svg>
